<svg width="13" height="13" viewBox="0 0 13 13" fill="none" xmlns="http://www.w3.org/2000/svg">
<g clip-path="url(#clip0_654_330)">
<path d="M4 12.8334C4.55228 12.8334 5 12.3857 5 11.8334C5 11.2811 4.55228 10.8334 4 10.8334C3.44772 10.8334 3 11.2811 3 11.8334C3 12.3857 3.44772 12.8334 4 12.8334Z" fill="white"/>
<path d="M9 12.8334C9.55228 12.8334 10 12.3857 10 11.8334C10 11.2811 9.55228 10.8334 9 10.8334C8.44772 10.8334 8 11.2811 8 11.8334C8 12.3857 8.44772 12.8334 9 12.8334Z" fill="white"/>
<path d="M12 2.33337H11V1.33337C11 1.20077 10.9473 1.07359 10.8536 0.979821C10.7598 0.886052 10.6326 0.833374 10.5 0.833374C10.3674 0.833374 10.2402 0.886052 10.1464 0.979821C10.0527 1.07359 10 1.20077 10 1.33337V2.33337H9C8.86739 2.33337 8.74021 2.38605 8.64645 2.47982C8.55268 2.57359 8.5 2.70077 8.5 2.83337C8.5 2.96598 8.55268 3.09316 8.64645 3.18693C8.74021 3.2807 8.86739 3.33337 9 3.33337H10V4.33337C10 4.46598 10.0527 4.59316 10.1464 4.68693C10.2402 4.7807 10.3674 4.83337 10.5 4.83337C10.6326 4.83337 10.7598 4.7807 10.8536 4.68693C10.9473 4.59316 11 4.46598 11 4.33337V3.33337H12C12.1326 3.33337 12.2598 3.2807 12.3536 3.18693C12.4473 3.09316 12.5 2.96598 12.5 2.83337C12.5 2.70077 12.4473 2.57359 12.3536 2.47982C12.2598 2.38605 12.1326 2.33337 12 2.33337Z" fill="white"/>
<path d="M11.3855 5.69637C11.3209 5.68428 11.2544 5.68513 11.1901 5.69889C11.1258 5.71265 11.0649 5.73903 11.0108 5.77652C10.9568 5.814 10.9107 5.86184 10.8753 5.91726C10.8399 5.97268 10.8158 6.03458 10.8045 6.09937C10.7421 6.44545 10.5602 6.75862 10.2904 6.98417C10.0206 7.20972 9.68015 7.33332 9.3285 7.33337H3.209L2.739 3.33337H7C7.13261 3.33337 7.25979 3.2807 7.35355 3.18693C7.44732 3.09316 7.5 2.96598 7.5 2.83337C7.5 2.70077 7.44732 2.57359 7.35355 2.47982C7.25979 2.38605 7.13261 2.33337 7 2.33337H2.621L2.6 2.15737C2.55691 1.79267 2.38153 1.45645 2.10709 1.21243C1.83266 0.968401 1.47824 0.83353 1.111 0.833374H1C0.867392 0.833374 0.740215 0.886052 0.646447 0.979821C0.552678 1.07359 0.5 1.20077 0.5 1.33337C0.5 1.46598 0.552678 1.59316 0.646447 1.68693C0.740215 1.7807 0.867392 1.83337 1 1.83337H1.111C1.23347 1.83339 1.35167 1.87835 1.44319 1.95973C1.5347 2.04111 1.59317 2.15325 1.6075 2.27487L2.2955 8.12487C2.36693 8.73327 2.65924 9.29426 3.11695 9.70138C3.57467 10.1085 4.16593 10.3334 4.7785 10.3334H10C10.1326 10.3334 10.2598 10.2807 10.3536 10.1869C10.4473 10.0932 10.5 9.96598 10.5 9.83337C10.5 9.70077 10.4473 9.57359 10.3536 9.47982C10.2598 9.38605 10.1326 9.33337 10 9.33337H4.7785C4.46826 9.33343 4.16563 9.2373 3.91231 9.0582C3.65898 8.87911 3.46741 8.62587 3.364 8.33337H9.3285C9.91457 8.33343 10.482 8.12758 10.9318 7.75178C11.3815 7.37599 11.6849 6.85413 11.789 6.27737C11.8007 6.21273 11.7995 6.14641 11.7855 6.08222C11.7716 6.01803 11.7451 5.95722 11.7076 5.90326C11.6702 5.84931 11.6224 5.80326 11.5672 5.76776C11.5119 5.73226 11.4502 5.70801 11.3855 5.69637Z" fill="white"/>
</g>
<defs>
<clipPath id="clip0_654_330">
<rect width="12" height="12" fill="white" transform="translate(0.5 0.833374)"/>
</clipPath>
</defs>
</svg>
