<svg width="21" height="20" viewBox="0 0 21 20" fill="none" xmlns="http://www.w3.org/2000/svg">
<path d="M17.8207 2.92929C15.931 1.03956 13.4226 0 10.75 0C8.07744 0 5.56902 1.03956 3.67929 2.92929C1.78956 4.81902 0.75 7.32744 0.75 10C0.75 12.6726 1.78956 15.181 3.67929 17.0707C5.56902 18.9604 8.07744 20 10.75 20C13.4226 20 15.931 18.9604 17.8207 17.0707C19.7104 15.181 20.75 12.6726 20.75 10C20.75 7.32744 19.7104 4.81902 17.8207 2.92929ZM17.0168 16.2668C15.3418 17.9419 13.1153 18.8636 10.75 18.8636C8.38468 18.8636 6.15825 17.9419 4.48317 16.2668C1.02778 12.8114 1.02778 7.18855 4.48317 3.73317C6.15825 2.05808 8.38468 1.13636 10.75 1.13636C13.1153 1.13636 15.3418 2.05808 17.0168 3.73316C20.4722 7.18855 20.4722 12.8114 17.0168 16.2668Z" fill="#1F1F1F"/>
<path d="M15.1562 5.59345C14.9331 5.37038 14.5754 5.37038 14.3523 5.59345L10.7496 9.19614L7.14695 5.59345C6.92389 5.37038 6.56614 5.37038 6.34308 5.59345C6.12002 5.81651 6.12002 6.17425 6.34308 6.39732L9.94577 10L6.34308 13.6027C6.12002 13.8258 6.12002 14.1835 6.34308 14.4066C6.45251 14.516 6.59981 14.5749 6.74291 14.5749C6.88601 14.5749 7.03331 14.5202 7.14274 14.4066L10.7454 10.8039L14.3481 14.4066C14.4576 14.516 14.6049 14.5749 14.748 14.5749C14.8953 14.5749 15.0384 14.5202 15.1478 14.4066C15.3709 14.1835 15.3709 13.8258 15.1478 13.6027L11.5535 10L15.1562 6.39732C15.3793 6.17425 15.3793 5.81651 15.1562 5.59345Z" fill="#1F1F1F"/>
</svg>
