<svg width="24" height="24" viewBox="0 0 24 24" fill="none" xmlns="http://www.w3.org/2000/svg">
<path d="M5.625 16.5C5.625 17.1203 6.12975 17.625 6.75 17.625H17.25C17.8703 17.625 18.375 17.1203 18.375 16.5V9.75C18.375 9.12975 17.8703 8.625 17.25 8.625H14.625V7.875C14.625 7.04775 13.9523 6.375 13.125 6.375H10.875C10.0478 6.375 9.375 7.04775 9.375 7.875V8.625H6.75C6.12975 8.625 5.625 9.12975 5.625 9.75V16.5ZM8.625 13.5V12.375H9.375L9.37537 12.7489C9.37537 12.7493 9.375 12.7496 9.375 12.75C9.375 12.7504 9.37537 12.7507 9.37537 12.7511L9.37575 13.5H8.625ZM14.625 13.5V12.375H15.375L15.3754 12.7489C15.3754 12.7493 15.375 12.7496 15.375 12.75C15.375 12.7504 15.3754 12.7507 15.3754 12.7511L15.3757 13.5H14.625ZM11.25 8.25H12.75V8.625H11.25V8.25ZM6.375 9.75C6.375 9.543 6.543 9.375 6.75 9.375H9.75H10.875H13.125H14.25H17.25C17.457 9.375 17.625 9.543 17.625 9.75V12.375H16.125C16.125 11.9614 15.7886 11.625 15.375 11.625H14.625C14.2114 11.625 13.875 11.9614 13.875 12.375H10.125C10.125 11.9614 9.78863 11.625 9.375 11.625H8.625C8.21137 11.625 7.875 11.9614 7.875 12.375H6.375V9.75Z" fill="#DF1C26"/>
<path d="M21.75 1.125H18V0.75C18 0.336375 17.6636 0 17.25 0H16.5C16.0864 0 15.75 0.336375 15.75 0.75V1.125H8.25V0.75C8.25 0.336375 7.91363 0 7.5 0H6.75C6.33637 0 6 0.336375 6 0.75V1.125H2.25C1.42275 1.125 0.75 1.79775 0.75 2.625V22.5C0.75 23.3273 1.42275 24 2.25 24H21.75C22.5773 24 23.25 23.3273 23.25 22.5V2.625C23.25 1.79775 22.5773 1.125 21.75 1.125ZM16.1734 4.99725C16.3665 5.15287 16.6084 5.25 16.875 5.25C17.1416 5.25 17.3835 5.15287 17.5766 4.99725C17.6055 5.07788 17.625 5.16188 17.625 5.25C17.625 5.66362 17.2886 6 16.875 6C16.4614 6 16.125 5.66362 16.125 5.25C16.125 5.16188 16.1445 5.07788 16.1734 4.99725ZM8.25 1.875H15.75V2.625H8.25L8.25 1.875ZM6.42337 4.99725C6.6165 5.15287 6.85837 5.25 7.125 5.25C7.39162 5.25 7.6335 5.15287 7.82662 4.99725C7.8555 5.07788 7.875 5.16188 7.875 5.25C7.875 5.66362 7.53862 6 7.125 6C6.71137 6 6.375 5.66362 6.375 5.25C6.375 5.16188 6.3945 5.07788 6.42337 4.99725ZM6.01312 4.25437C5.76825 4.52775 5.625 4.8765 5.625 5.25C5.625 6.07725 6.29775 6.75 7.125 6.75C7.95225 6.75 8.625 6.07725 8.625 5.25C8.625 4.87613 8.48212 4.52738 8.23687 4.25437C8.24175 4.21125 8.25 4.16925 8.25 4.125V3.375H15.75V4.125C15.75 4.16925 15.7582 4.21125 15.7631 4.25437C15.5179 4.52738 15.375 4.87613 15.375 5.25C15.375 6.07725 16.0477 6.75 16.875 6.75C17.7023 6.75 18.375 6.07725 18.375 5.25C18.375 4.8765 18.2321 4.52738 17.9869 4.254C17.9921 4.21125 18 4.16925 18 4.125V3.375H20.25V18H18.75C18.3364 18 18 18.3364 18 18.75V20.25H3.75V3.375H6V4.125C6 4.16925 6.00825 4.21163 6.01312 4.25437H6.01312ZM20.25 19.2803V21.75H3.75V21H18.375C18.4748 21 18.57 20.9606 18.6401 20.8901L20.25 19.2803ZM22.5 22.5C22.5 22.9136 22.1636 23.25 21.75 23.25H2.25C1.83637 23.25 1.5 22.9136 1.5 22.5V2.625C1.5 2.21137 1.83637 1.875 2.25 1.875H6V2.625H3.75C3.33638 2.625 3 2.96137 3 3.375V20.25V21.75C3 22.1636 3.33638 22.5 3.75 22.5H20.25C20.6636 22.5 21 22.1636 21 21.75V3.375C21 2.96137 20.6636 2.625 20.25 2.625H18V1.875H21.75C22.1636 1.875 22.5 2.21137 22.5 2.625V22.5Z" fill="#DF1C26"/>
</svg>
