<svg width="24" height="24" viewBox="0 0 24 24" fill="none" xmlns="http://www.w3.org/2000/svg">
<path d="M21.3445 14.8913L20.1267 15.5944L19.6299 15.8813C19.6468 16.0892 19.6553 16.2978 19.6553 16.5064C19.6553 16.715 19.6468 16.9237 19.6299 17.1315L20.1267 17.4184L21.3445 18.1215L20.6414 19.3392L19.8478 20.7137H24V11.9247C23.1295 12.7968 21.9268 13.3371 20.6003 13.3371H20.4471L20.6414 13.6735L21.3445 14.8913Z" fill="#DF1C26"/>
<path d="M4.15271 20.7138L3.35914 19.3393L2.65603 18.1215L3.87386 17.4184L4.37063 17.1315C4.35371 16.9236 4.34518 16.715 4.34518 16.5064C4.34518 16.2977 4.35371 16.0891 4.37063 15.8812L3.87386 15.5944L2.65603 14.8913L3.35914 13.6735L3.55338 13.3371H3.40015C2.07362 13.3371 0.870935 12.7968 0.000488281 11.9248V20.7138L4.15271 20.7138Z" fill="#DF1C26"/>
<path d="M7.78154 2.98807H0.000488281V8.53117C0.000488281 10.4058 1.52557 11.9308 3.40015 11.9308H4.36524L5.22626 10.4395L5.92937 9.22163L7.1472 9.92473L7.64467 10.2119C7.98793 9.97447 8.35045 9.7648 8.72675 9.58607V9.01275V7.60654H10.133H13.8673H15.2735V9.01275V9.58607C15.6498 9.7648 16.0124 9.97446 16.3556 10.2119L16.8531 9.92473L18.0709 9.22163L18.774 10.4395L19.635 11.9308H20.6001C22.4747 11.9308 23.9998 10.4058 23.9998 8.53117H23.9998V2.98806H16.2188V1.40621H17.625V0H6.37528V1.40621H7.78149V2.98806L7.78154 2.98807ZM9.18776 1.40621H14.8126V2.98807H9.18775L9.18776 1.40621Z" fill="#DF1C26"/>
<circle cx="15.9491" cy="15.7255" r="2.55883" transform="rotate(-67.4859 15.9491 15.7255)" fill="#DF1C26"/>
<path d="M16.2309 21.1049L17.5565 21.8702L19.4236 18.6362L18.0992 17.8715C18.1971 17.4321 18.2492 16.9753 18.2492 16.5064C18.2492 16.0375 18.1972 15.5807 18.0992 15.1413L19.4236 14.3766L17.5565 11.1426L16.2309 11.9079C15.5615 11.2917 14.7574 10.8197 13.8676 10.5414V9.0128H10.1332V10.5414C9.24339 10.8196 8.43932 11.2917 7.76991 11.9079L6.44437 11.1426L4.57715 14.3766L5.90157 15.1413C5.80365 15.5807 5.75157 16.0375 5.75157 16.5064C5.75157 16.9754 5.8036 17.4321 5.90157 17.8715L4.57715 18.6362L6.44432 21.8702L7.76986 21.1049C8.43927 21.7211 9.24339 22.1931 10.1332 22.4713V24H13.8675V22.4713C14.7574 22.1931 15.5615 21.7211 16.2309 21.1049ZM12.0004 12.5419C14.1864 12.5419 15.9648 14.3204 15.9648 16.5064C15.9648 18.6924 14.1864 20.4708 12.0004 20.4708C9.81436 20.4708 8.03592 18.6924 8.03592 16.5064C8.03592 14.3204 9.81441 12.5419 12.0004 12.5419Z" fill="#DF1C26"/>
</svg>
