<svg width="24" height="22" viewBox="0 0 24 22" fill="none" xmlns="http://www.w3.org/2000/svg">
<path d="M9.89062 11.7031H14.1094V13.1094H9.89062V11.7031Z" fill="#DF1C26"/>
<path d="M19.4709 13.1094H15.5156V13.8125C15.5156 14.201 15.201 14.5156 14.8125 14.5156H9.1875C8.79895 14.5156 8.48438 14.201 8.48438 13.8125V13.1094H4.52911C3.62 13.1094 2.81598 12.5298 2.52814 11.6674L0 4.08173V19.4375C0 20.6006 0.946289 21.5469 2.10938 21.5469H21.8906C23.0537 21.5469 24 20.6006 24 19.4375V4.08229L21.4717 11.6674C21.184 12.5298 20.38 13.1094 19.4709 13.1094H19.4709Z" fill="#DF1C26"/>
<path d="M14.8127 0.453125H9.18766C8.02458 0.453125 7.07829 1.39941 7.07829 2.5625V3.26562H1.20996L3.86188 11.2225C3.95801 11.5101 4.22644 11.7031 4.5293 11.7031H8.48456V11C8.48456 10.6114 8.79913 10.2969 9.18768 10.2969H14.8127C15.2012 10.2969 15.5158 10.6114 15.5158 11V11.7031H19.4711C19.7739 11.7031 20.0424 11.5101 20.1385 11.2225L22.7906 3.26562H16.9221V2.5625C16.9221 1.39941 15.9758 0.453125 14.8127 0.453125H14.8127ZM8.48454 3.26562V2.5625C8.48454 2.1745 8.79966 1.85938 9.18766 1.85938H14.8127C15.2007 1.85938 15.5158 2.1745 15.5158 2.5625V3.26562H8.48454Z" fill="#DF1C26"/>
</svg>
