<svg width="19" height="20" viewBox="0 0 19 20" fill="none" xmlns="http://www.w3.org/2000/svg">
<path d="M13.7673 19.1821H2.67136C1.51046 19.1821 0.566895 18.2385 0.566895 17.0776V5.98166C0.566895 4.82077 1.51046 3.8772 2.67136 3.8772H9.17588C9.49269 3.8772 9.74982 4.13432 9.74982 4.45113C9.74982 4.76794 9.49269 5.02506 9.17588 5.02506H2.67136C2.14409 5.02506 1.71476 5.45439 1.71476 5.98166V17.0776C1.71476 17.6049 2.14409 18.0342 2.67136 18.0342H13.7673C14.2946 18.0342 14.7239 17.6049 14.7239 17.0776V10.5731C14.7239 10.2563 14.9811 9.99919 15.2979 9.99919C15.6147 9.99919 15.8718 10.2556 15.8718 10.5731V17.0776C15.8718 18.2385 14.9282 19.1821 13.7673 19.1821Z" fill="#DF1C26"/>
<path d="M7.27969 13.0433C7.12892 13.0433 6.98193 12.9836 6.87404 12.875C6.73784 12.7395 6.67969 12.5443 6.71724 12.3568L7.25825 9.65097C7.28039 9.5393 7.33545 9.43743 7.41504 9.35784L15.3408 1.43305C16.1611 0.612648 17.4957 0.612648 18.3168 1.43305C18.7139 1.83015 18.9328 2.35827 18.9328 2.92071C18.9328 3.48315 18.7139 4.01113 18.316 4.40837L10.3912 12.334C10.3116 12.4143 10.209 12.4686 10.098 12.4908L7.39289 13.0318C7.35533 13.0395 7.31708 13.0433 7.27967 13.0433L7.27969 13.0433ZM9.98555 11.9283H9.99325H9.98555ZM8.3495 10.0467L8.01195 11.7378L9.70236 11.3995L17.5048 3.59721C17.6854 3.41575 17.7849 3.17629 17.7849 2.92071C17.7849 2.66513 17.6854 2.42552 17.5048 2.24421C17.133 1.87149 16.5261 1.87149 16.152 2.24421L8.3495 10.0467Z" fill="#DF1C26"/>
<path d="M16.8286 5.65954C16.6818 5.65954 16.5348 5.60363 16.4231 5.49111L14.259 3.32625C14.0348 3.10206 14.0348 2.73859 14.259 2.5144C14.4832 2.2902 14.8466 2.2902 15.071 2.5144L17.235 4.67926C17.4592 4.90345 17.4592 5.26692 17.235 5.49111C17.1225 5.60293 16.9756 5.65954 16.8286 5.65954Z" fill="#DF1C26"/>
</svg>
