<svg width="49" height="48" viewBox="0 0 49 48" fill="none" xmlns="http://www.w3.org/2000/svg">
<path d="M4.97412 17.7079C4.97412 11.794 9.76824 7.00006 15.682 7.00006C18.3049 7.00006 20.7058 7.94456 22.5666 9.51085C23.6851 10.4523 25.3155 10.4523 26.4339 9.51085C28.2946 7.94449 30.6955 7.00006 33.3185 7.00006C39.2323 7.00006 44.0264 11.794 44.0264 17.7079V17.393C44.0264 27.7775 31.3974 37.1434 26.4524 40.4128C25.8734 40.7958 25.1945 41 24.5002 41C23.806 41 23.1271 40.7958 22.548 40.4128C17.6031 37.1434 4.97412 27.7775 4.97412 17.393" fill="#FF6464"/>
<path d="M4.97412 17.7079C4.97412 17.6626 4.98038 17.6189 4.98091 17.5737C4.97999 17.5134 4.97412 17.4534 4.97412 17.3929V17.7079ZM13.732 18.4113C13.7316 18.46 13.7272 18.5072 13.7272 18.5561V18.2162C13.7272 18.2814 13.7314 18.3461 13.732 18.4113C13.7735 13.3096 15.9769 9.00509 19.0107 7.5391C17.962 7.19541 16.8459 7 15.682 7C9.81347 7 5.05352 11.7223 4.98091 17.5737C5.12652 27.8859 17.6319 37.1625 22.5481 40.4127C23.0526 40.7462 23.6212 40.9288 24.1989 40.9782C20.1423 36.4198 13.8188 27.815 13.732 18.4113Z" fill="#D2555A"/>
<path d="M39.262 18.6598C40.6118 18.6598 41.7061 17.5655 41.7061 16.2157C41.7061 14.8658 40.6118 13.7715 39.262 13.7715C37.9121 13.7715 36.8179 14.8658 36.8179 16.2157C36.8179 17.5655 37.9121 18.6598 39.262 18.6598Z" fill="#FF8B8B"/>
<path d="M36.1277 13.0831C36.9714 13.0831 37.6553 12.3992 37.6553 11.5555C37.6553 10.7118 36.9714 10.0279 36.1277 10.0279C35.284 10.0279 34.6001 10.7118 34.6001 11.5555C34.6001 12.3992 35.284 13.0831 36.1277 13.0831Z" fill="#FFC1C1"/>
</svg>
