<svg width="19" height="17" viewBox="0 0 19 17" fill="none" xmlns="http://www.w3.org/2000/svg">
<path d="M17.0654 2.06581C16.1344 1.0561 14.857 0.5 13.4682 0.5C12.4301 0.5 11.4794 0.828199 10.6424 1.4754C10.2201 1.80209 9.83745 2.20178 9.50006 2.66828C9.1628 2.20192 8.77999 1.80209 8.35753 1.4754C7.52071 0.828198 6.57 0.5 5.53189 0.5C4.14308 0.5 2.86555 1.0561 1.9346 2.06581C1.01476 3.06371 0.508057 4.427 0.508057 5.90472C0.508057 7.42566 1.07486 8.8179 2.29175 10.2863C3.38035 11.5998 4.94492 12.9332 6.75674 14.4772C7.3754 15.0044 8.07667 15.6021 8.80483 16.2388C8.99719 16.4072 9.24403 16.5 9.50006 16.5C9.75595 16.5 10.0029 16.4072 10.195 16.239C10.9232 15.6023 11.6248 15.0043 12.2438 14.4767C14.0553 12.933 15.6199 11.5998 16.7085 10.2862C17.9254 8.8179 18.492 7.42566 18.492 5.90459C18.492 4.42701 17.9853 3.06372 17.0654 2.06581L17.0654 2.06581Z" fill="#BCBCBC"/>
</svg>
