<svg width="135" height="121" viewBox="0 0 135 121" fill="none" xmlns="http://www.w3.org/2000/svg">
<path d="M65.559 0.885523C67.0461 -0.412216 68.6351 -0.283571 70.3258 1.27145C70.4276 1.36475 70.5478 1.41141 70.6863 1.41141C79.3973 1.41706 88.1111 1.41847 96.8277 1.41564C99.0542 1.41564 99.6352 5.22828 96.5054 5.23252C87.9499 5.23535 79.3945 5.23535 70.839 5.23252C70.6948 5.23252 70.5761 5.28624 70.4828 5.39368C67.1239 9.37596 61.8524 4.12563 65.559 0.885523Z" fill="#242021"/>
<path d="M36.3895 6.09768C36.1138 4.3504 36.6694 3.01874 38.5991 3.0145C46.3092 3.00036 54.0178 2.99894 61.7251 3.01025C61.8693 3.01025 61.94 3.08377 61.9372 3.23079C61.9174 4.45219 62.2496 5.56473 62.9338 6.56843C63.0497 6.73807 63.0045 6.82289 62.7981 6.82289H40.8383C40.5952 6.82289 40.492 6.94306 40.5287 7.18338C41.7388 15.2214 42.9376 23.3019 44.1251 31.4248C44.388 33.2399 45.8596 33.7446 47.5984 33.7446C60.9321 33.7559 74.2671 33.7573 87.6035 33.7488C89.2533 33.7488 90.1184 32.519 90.3602 30.9159C91.5137 23.2482 92.663 15.5819 93.8081 7.91707C93.8307 7.76439 93.9184 7.68664 94.071 7.68381L97.5783 7.6414C97.6773 7.63857 97.7197 7.68522 97.7056 7.78135C96.5464 15.5452 95.39 23.3118 94.2364 31.0813C93.5112 35.9669 90.8988 37.5657 86.1574 37.5657C73.867 37.5714 61.5781 37.5728 49.2906 37.57C43.2005 37.57 40.9401 36.2637 40.0622 30.3009C38.8719 22.2289 37.6477 14.1612 36.3895 6.09768Z" fill="#242021"/>
<path d="M58.1967 16.7765H58.0609C57.0468 16.7765 56.2246 17.5986 56.2246 18.6128V27.1202C56.2246 28.1344 57.0468 28.9565 58.0609 28.9565H58.1967C59.2108 28.9565 60.033 28.1344 60.033 27.1202V18.6128C60.033 17.5986 59.2108 16.7765 58.1967 16.7765Z" fill="#242021"/>
<path d="M67.6283 16.7765H67.4926C66.4784 16.7765 65.6562 17.5986 65.6562 18.6128V27.1202C65.6562 28.1344 66.4784 28.9565 67.4926 28.9565H67.6283C68.6425 28.9565 69.4647 28.1344 69.4647 27.1202V18.6128C69.4647 17.5986 68.6425 16.7765 67.6283 16.7765Z" fill="#242021"/>
<path d="M77.0606 16.768H76.9334C75.9168 16.768 75.0928 17.592 75.0928 18.6086V27.116C75.0928 28.1325 75.9168 28.9565 76.9334 28.9565H77.0606C78.0771 28.9565 78.9012 28.1325 78.9012 27.116V18.6086C78.9012 17.592 78.0771 16.768 77.0606 16.768Z" fill="#242021"/>
<path d="M17.5242 101.056C2.49845 100.098 -1.96729 86.6833 1.00139 73.9307C3.46116 63.3622 12.9652 59.3036 23.029 60.7583C31.036 61.9175 35.9725 66.4284 37.8385 74.2912C37.8753 74.4439 37.8145 74.5231 37.6561 74.5287L35.4763 74.6178C35.3038 74.6234 35.1978 74.5428 35.1582 74.376C33.4873 67.4745 29.0286 63.7411 21.7822 63.1756C16.3961 62.7515 10.1152 63.6464 6.57827 68.0612C2.62993 72.9977 2.43909 81.2294 3.73258 87.2728C5.87852 97.3239 14.6743 99.4317 23.5803 98.2273C29.9121 97.3706 33.6272 93.1975 35.0734 87.2644C35.0868 87.2077 35.1191 87.1573 35.1653 87.1211C35.2115 87.0849 35.2687 87.0652 35.3279 87.065H37.6561C37.7862 87.065 37.8371 87.1287 37.8088 87.2559C35.6035 97.5487 27.3803 101.679 17.5242 101.056Z" fill="#DF1C26"/>
<path d="M43.6937 60.9939L41.1746 60.9807C41.1113 60.9804 41.0598 61.0314 41.0595 61.0946L41.0473 63.4186C41.047 63.4819 41.098 63.5334 41.1612 63.5337L43.6803 63.5469C43.7435 63.5473 43.7951 63.4963 43.7954 63.433L43.8076 61.109C43.8079 61.0458 43.7569 60.9942 43.6937 60.9939Z" fill="#242021"/>
<path d="M100.427 60.9873H97.9755C97.8631 60.9873 97.772 61.0784 97.772 61.1908V100.437C97.772 100.549 97.8631 100.64 97.9755 100.64H100.427C100.539 100.64 100.63 100.549 100.63 100.437V61.1908C100.63 61.0784 100.539 60.9873 100.427 60.9873Z" fill="#DF1C26"/>
<path d="M77.7377 100.954C70.9649 100.263 66.1386 96.497 64.7773 89.7326C62.4575 78.2056 67.9835 68.4641 80.8548 68.99C88.6752 69.3081 94.4472 73.0316 95.8297 81.3227C95.8523 81.4641 95.793 81.5362 95.6516 81.539L93.3063 81.5899C93.2315 81.5906 93.1591 81.5643 93.1029 81.5158C93.0466 81.4673 93.0103 81.4001 93.001 81.327C91.8814 73.0147 84.7141 71.3607 77.6444 72.0223C70.9734 72.6457 67.8011 76.3778 67.1989 82.8961C66.5458 89.9531 68.5857 96.6751 76.4654 97.9898C84.0483 99.2536 91.4785 97.4215 93.0476 88.7487C93.0844 88.531 93.2144 88.4235 93.4378 88.4264L95.6516 88.4518C95.759 88.4518 95.8057 88.5055 95.7915 88.613C94.3793 98.3036 86.7583 101.875 77.7377 100.954Z" fill="#DF1C26"/>
<path d="M105.851 85.2542C105.885 91.2339 108.035 96.4546 114.452 97.8159C121.933 99.402 130.72 97.6802 131.776 88.5664C131.784 88.4943 131.819 88.4281 131.874 88.3814C131.93 88.3347 132.001 88.3114 132.073 88.3161L134.338 88.4603C134.488 88.4688 134.551 88.5466 134.529 88.6936C133.104 98.5114 125.211 101.824 116.326 101.009C110.334 100.458 105.792 97.0356 103.977 91.2933C102.055 85.2245 102.874 76.3184 108.366 72.1071C114.278 67.5735 125.512 67.8916 130.788 73.3413C133.863 76.5135 134.63 80.4746 134.864 84.8428C134.865 84.8694 134.862 84.8962 134.853 84.9213C134.844 84.9465 134.83 84.9695 134.811 84.989C134.793 85.0085 134.771 85.024 134.746 85.0346C134.722 85.0452 134.695 85.0506 134.669 85.0506H106.05C105.918 85.0506 105.851 85.1184 105.851 85.2542ZM106.017 82.506H131.853C131.854 82.506 131.855 82.5055 131.856 82.5048C131.856 82.504 131.857 82.5029 131.857 82.5017V82.4848C131.857 81.0852 131.564 79.6993 130.995 78.4063C130.426 77.1133 129.592 75.9384 128.54 74.9488C127.489 73.9591 126.24 73.1741 124.867 72.6385C123.493 72.1029 122.02 71.8272 120.533 71.8272H117.336C114.333 71.8272 111.452 72.9501 109.329 74.9488C107.205 76.9474 106.012 79.6582 106.012 82.4848V82.5017C106.012 82.5029 106.013 82.504 106.014 82.5048C106.014 82.5055 106.015 82.506 106.017 82.506Z" fill="#DF1C26"/>
<path d="M43.691 69.4734H41.1633C41.1001 69.4734 41.0488 69.5247 41.0488 69.588V100.539C41.0488 100.602 41.1001 100.653 41.1633 100.653H43.691C43.7542 100.653 43.8055 100.602 43.8055 100.539V69.588C43.8055 69.5247 43.7542 69.4734 43.691 69.4734Z" fill="#DF1C26"/>
<path d="M49.6837 74.7662C49.6846 74.7892 49.6926 74.8115 49.7064 74.83C49.7203 74.8485 49.7394 74.8623 49.761 74.8693C49.7826 74.8764 49.8056 74.8763 49.8267 74.8692C49.8478 74.8622 49.8661 74.8484 49.8787 74.8298C53.8483 69.3929 59.1707 69.4819 65.3032 69.5668C65.4445 69.5668 65.518 69.6375 65.5237 69.7788L65.5831 71.8781C65.5859 72.0308 65.5124 72.1043 65.3625 72.0986C62.015 71.9629 59.7008 72.0407 58.4201 72.3319C52.0459 73.7696 49.9805 78.8757 49.8109 84.9742C49.6639 90.1171 49.6059 95.2643 49.637 100.416C49.637 100.563 49.5635 100.636 49.4165 100.636H47.1984C46.9864 100.636 46.8804 100.53 46.8804 100.318V69.7831C46.8804 69.6445 46.9511 69.5738 47.0924 69.571L49.3995 69.5668C49.5437 69.5668 49.6172 69.6389 49.62 69.7831L49.6837 74.7662Z" fill="#DF1C26"/>
<path d="M7.89639 109.762C8.0603 109.879 8.15006 109.988 8.16567 110.09C8.18909 110.191 8.15006 110.312 8.04859 110.453L5.29727 114.632V117.384C5.29727 117.485 5.28557 117.579 5.26215 117.665C5.23873 117.743 5.188 117.801 5.10995 117.84C5.0397 117.887 4.92653 117.91 4.77042 117.91C4.61432 117.91 4.49724 117.887 4.41919 117.84C4.34895 117.801 4.29821 117.739 4.26699 117.653C4.24358 117.567 4.23187 117.469 4.23187 117.36V114.621L1.46884 110.476C1.37518 110.335 1.34005 110.215 1.36347 110.113C1.38689 110.004 1.48055 109.891 1.64446 109.774C1.76153 109.695 1.8591 109.649 1.93715 109.633C2.02301 109.61 2.10106 109.621 2.1713 109.668C2.24155 109.707 2.30789 109.781 2.37034 109.891L4.75872 113.637L7.1588 109.891C7.22905 109.781 7.2954 109.707 7.35784 109.668C7.42808 109.629 7.50613 109.617 7.59199 109.633C7.67785 109.641 7.77932 109.684 7.89639 109.762Z" fill="black"/>
<path d="M10.3852 117.969C10.0027 117.969 9.63591 117.895 9.28468 117.747C8.94125 117.598 8.63294 117.395 8.35976 117.138C8.08658 116.872 7.87194 116.564 7.71584 116.213C7.55973 115.862 7.48168 115.479 7.48168 115.065C7.48168 114.66 7.55583 114.285 7.70413 113.941C7.85243 113.59 8.05926 113.282 8.32464 113.017C8.59002 112.751 8.89442 112.544 9.23784 112.396C9.58908 112.24 9.96372 112.162 10.3618 112.162C10.9003 112.162 11.3843 112.291 11.8135 112.548C12.2506 112.798 12.598 113.141 12.8555 113.579C13.1131 114.016 13.2419 114.507 13.2419 115.054C13.2419 115.483 13.1638 115.877 13.0077 116.236C12.8516 116.587 12.6409 116.892 12.3755 117.149C12.1101 117.407 11.8057 117.61 11.4623 117.758C11.1189 117.899 10.7599 117.969 10.3852 117.969ZM10.3618 116.95C10.6896 116.95 10.994 116.868 11.275 116.705C11.556 116.541 11.7823 116.314 11.954 116.025C12.1258 115.737 12.2116 115.409 12.2116 115.042C12.2116 114.675 12.1297 114.351 11.9657 114.07C11.8096 113.789 11.5911 113.571 11.3101 113.415C11.0291 113.259 10.7091 113.18 10.3501 113.18C10.0067 113.18 9.69445 113.262 9.41346 113.426C9.14028 113.59 8.91783 113.813 8.74612 114.094C8.58221 114.375 8.50026 114.695 8.50026 115.054C8.50026 115.428 8.58611 115.76 8.75783 116.049C8.92954 116.33 9.15589 116.552 9.43688 116.716C9.72567 116.872 10.034 116.95 10.3618 116.95Z" fill="black"/>
<path d="M16.6204 117.91C16.277 117.91 15.957 117.848 15.6604 117.723C15.3716 117.598 15.1179 117.423 14.8994 117.196C14.6808 116.97 14.5091 116.697 14.3842 116.377C14.2671 116.057 14.2086 115.694 14.2086 115.288V112.747C14.2086 112.638 14.2203 112.544 14.2437 112.466C14.2671 112.388 14.314 112.33 14.3842 112.291C14.4623 112.244 14.5754 112.22 14.7237 112.22C14.872 112.22 14.9813 112.244 15.0516 112.291C15.1296 112.338 15.1803 112.4 15.2038 112.478C15.2272 112.556 15.2389 112.65 15.2389 112.759V115.3C15.2389 115.62 15.2935 115.904 15.4028 116.154C15.5121 116.396 15.676 116.584 15.8945 116.716C16.1209 116.849 16.3941 116.915 16.7141 116.915C17.0419 116.915 17.3229 116.849 17.557 116.716C17.799 116.584 17.9824 116.396 18.1073 116.154C18.24 115.904 18.3063 115.62 18.3063 115.3V112.747C18.3063 112.638 18.318 112.544 18.3414 112.466C18.3649 112.388 18.4117 112.33 18.4819 112.291C18.56 112.244 18.6732 112.22 18.8215 112.22C18.9698 112.22 19.079 112.244 19.1493 112.291C19.2273 112.338 19.2742 112.4 19.2898 112.478C19.3132 112.556 19.3249 112.65 19.3249 112.759V117.407C19.3249 117.501 19.3132 117.586 19.2898 117.665C19.2742 117.735 19.2273 117.789 19.1493 117.828C19.079 117.867 18.9698 117.887 18.8215 117.887C18.7122 117.887 18.6224 117.875 18.5522 117.852C18.4897 117.828 18.4429 117.797 18.4117 117.758C18.3805 117.719 18.357 117.676 18.3414 117.629C18.3336 117.575 18.3297 117.52 18.3297 117.466L18.3766 116.962C18.2985 117.056 18.2048 117.157 18.0956 117.266C17.9863 117.376 17.8575 117.481 17.7092 117.583C17.5687 117.676 17.4087 117.754 17.2292 117.817C17.0497 117.879 16.8468 117.91 16.6204 117.91Z" fill="black"/>
<path d="M21.2446 117.899C21.0963 117.899 20.9831 117.875 20.9051 117.828C20.8348 117.789 20.788 117.731 20.7646 117.653C20.749 117.567 20.7412 117.469 20.7412 117.36V112.747C20.7412 112.63 20.7529 112.533 20.7763 112.455C20.7997 112.377 20.8465 112.322 20.9168 112.291C20.987 112.252 21.1002 112.232 21.2563 112.232C21.3968 112.232 21.5022 112.252 21.5724 112.291C21.6505 112.322 21.7012 112.373 21.7246 112.443C21.7558 112.505 21.7714 112.579 21.7714 112.665L21.7246 113.017C21.7792 112.915 21.8417 112.814 21.9119 112.712C21.99 112.611 22.0836 112.521 22.1929 112.443C22.31 112.357 22.4466 112.287 22.6027 112.232C22.7666 112.178 22.9656 112.15 23.1998 112.15C23.3169 112.15 23.4261 112.162 23.5276 112.185C23.6369 112.201 23.7383 112.228 23.832 112.267C23.9335 112.306 24.0193 112.353 24.0896 112.408C24.1598 112.455 24.2145 112.509 24.2535 112.572C24.3003 112.626 24.3237 112.693 24.3237 112.771C24.3237 112.942 24.2691 113.091 24.1598 113.216C24.0506 113.333 23.9374 113.391 23.8203 113.391C23.7188 113.391 23.6447 113.38 23.5979 113.356C23.551 113.325 23.5042 113.294 23.4574 113.262C23.4183 113.231 23.3598 113.204 23.2817 113.18C23.2037 113.149 23.0788 113.134 22.9071 113.134C22.79 113.134 22.6651 113.157 22.5324 113.204C22.4076 113.251 22.2866 113.321 22.1695 113.415C22.0524 113.5 21.9549 113.614 21.8768 113.754C21.8066 113.895 21.7714 114.059 21.7714 114.246V117.384C21.7714 117.493 21.7597 117.586 21.7363 117.665C21.7129 117.743 21.6622 117.801 21.5841 117.84C21.5139 117.879 21.4007 117.899 21.2446 117.899Z" fill="black"/>
<path d="M29.0438 117.899C28.8955 117.899 28.7823 117.875 28.7043 117.828C28.634 117.789 28.5872 117.731 28.5638 117.653C28.5404 117.567 28.5286 117.469 28.5286 117.36V110.254C28.5286 110.152 28.5404 110.062 28.5638 109.984C28.595 109.906 28.6496 109.844 28.7277 109.797C28.8057 109.75 28.915 109.727 29.0555 109.727H31.6195C31.9941 109.727 32.3376 109.785 32.6498 109.902C32.9698 110.012 33.2469 110.183 33.481 110.417C33.723 110.644 33.9103 110.921 34.043 111.249C34.1757 111.577 34.242 111.955 34.242 112.384C34.242 112.806 34.1757 113.18 34.043 113.508C33.9103 113.836 33.723 114.113 33.481 114.34C33.2391 114.558 32.9581 114.726 32.6381 114.843C32.3259 114.96 31.9824 115.019 31.6078 115.019H29.594V117.372C29.594 117.481 29.5784 117.575 29.5472 117.653C29.5238 117.731 29.4731 117.789 29.395 117.828C29.3248 117.875 29.2077 117.899 29.0438 117.899ZM29.594 113.953H31.6195C31.9317 113.953 32.2049 113.895 32.439 113.778C32.6732 113.653 32.8566 113.473 32.9893 113.239C33.122 112.997 33.1883 112.704 33.1883 112.361C33.1883 112.033 33.1259 111.752 33.001 111.518C32.8761 111.284 32.6927 111.104 32.4507 110.979C32.2166 110.855 31.9356 110.792 31.6078 110.792H29.594V113.953Z" fill="black"/>
<path d="M38.0539 117.969C37.6714 117.969 37.3046 117.895 36.9534 117.747C36.6099 117.598 36.3016 117.395 36.0285 117.138C35.7553 116.872 35.5406 116.564 35.3845 116.213C35.2284 115.862 35.1504 115.479 35.1504 115.065C35.1504 114.66 35.2245 114.285 35.3728 113.941C35.5211 113.59 35.728 113.282 35.9933 113.017C36.2587 112.751 36.5631 112.544 36.9065 112.396C37.2578 112.24 37.6324 112.162 38.0305 112.162C38.569 112.162 39.053 112.291 39.4822 112.548C39.9193 112.798 40.2667 113.141 40.5242 113.579C40.7818 114.016 40.9106 114.507 40.9106 115.054C40.9106 115.483 40.8325 115.877 40.6764 116.236C40.5203 116.587 40.3096 116.892 40.0442 117.149C39.7788 117.407 39.4744 117.61 39.131 117.758C38.7876 117.899 38.4286 117.969 38.0539 117.969ZM38.0305 116.95C38.3583 116.95 38.6627 116.868 38.9437 116.705C39.2247 116.541 39.451 116.314 39.6227 116.025C39.7945 115.737 39.8803 115.409 39.8803 115.042C39.8803 114.675 39.7984 114.351 39.6344 114.07C39.4783 113.789 39.2598 113.571 38.9788 113.415C38.6978 113.259 38.3778 113.18 38.0188 113.18C37.6754 113.18 37.3631 113.262 37.0822 113.426C36.809 113.59 36.5865 113.813 36.4148 114.094C36.2509 114.375 36.169 114.695 36.169 115.054C36.169 115.428 36.2548 115.76 36.4265 116.049C36.5982 116.33 36.8246 116.552 37.1056 116.716C37.3944 116.872 37.7027 116.95 38.0305 116.95Z" fill="black"/>
<path d="M44.7106 117.922C44.3047 117.922 43.9223 117.856 43.5632 117.723C43.212 117.59 42.8998 117.399 42.6266 117.149C42.3612 116.9 42.1505 116.603 41.9944 116.26C41.8461 115.908 41.7719 115.51 41.7719 115.065C41.7719 114.621 41.8461 114.226 41.9944 113.883C42.1505 113.532 42.3612 113.231 42.6266 112.981C42.892 112.732 43.2003 112.54 43.5515 112.408C43.9105 112.275 44.2891 112.209 44.6872 112.209C44.9525 112.209 45.214 112.252 45.4716 112.338C45.7292 112.416 45.9555 112.521 46.1506 112.654C46.3536 112.779 46.498 112.911 46.5838 113.052C46.6619 113.153 46.7165 113.239 46.7477 113.309C46.7868 113.372 46.7907 113.446 46.7594 113.532C46.7282 113.594 46.6853 113.653 46.6306 113.707C46.576 113.754 46.5214 113.793 46.4667 113.824C46.3262 113.934 46.1858 113.949 46.0453 113.871C45.9594 113.785 45.8618 113.707 45.7526 113.637C45.6511 113.559 45.5418 113.489 45.4248 113.426C45.3077 113.364 45.1867 113.317 45.0618 113.286C44.9447 113.247 44.8198 113.227 44.6872 113.227C44.3203 113.227 43.9964 113.305 43.7154 113.461C43.4344 113.61 43.2159 113.824 43.0598 114.105C42.9115 114.379 42.8373 114.699 42.8373 115.065C42.8373 115.432 42.9115 115.752 43.0598 116.025C43.2159 116.299 43.4305 116.513 43.7037 116.669C43.9847 116.825 44.3047 116.904 44.6637 116.904C44.8277 116.904 44.9838 116.884 45.1321 116.845C45.2882 116.798 45.4326 116.74 45.5652 116.669C45.6979 116.591 45.8072 116.509 45.8931 116.424C45.9711 116.369 46.0375 116.322 46.0921 116.283C46.1467 116.244 46.2131 116.224 46.2911 116.224C46.3536 116.224 46.4199 116.252 46.4902 116.306C46.5604 116.353 46.6345 116.427 46.7126 116.529C46.775 116.599 46.8102 116.673 46.818 116.751C46.8336 116.829 46.8219 116.904 46.7828 116.974C46.7438 117.044 46.6814 117.114 46.5955 117.185C46.4706 117.309 46.3028 117.43 46.0921 117.547C45.8892 117.657 45.6667 117.747 45.4248 117.817C45.1828 117.887 44.9447 117.922 44.7106 117.922Z" fill="black"/>
<path d="M52.3418 116.986C52.4901 117.103 52.5682 117.216 52.576 117.325C52.5916 117.434 52.537 117.563 52.4121 117.711C52.3184 117.821 52.2326 117.891 52.1545 117.922C52.0843 117.961 52.0101 117.965 51.9321 117.934C51.854 117.91 51.7643 117.856 51.6628 117.77L49.0168 115.616V117.372C49.0168 117.481 49.0012 117.575 48.97 117.653C48.9466 117.731 48.8998 117.789 48.8295 117.828C48.7593 117.875 48.6461 117.899 48.49 117.899C48.3495 117.899 48.2402 117.875 48.1622 117.828C48.0841 117.789 48.0334 117.731 48.01 117.653C47.9944 117.567 47.9865 117.469 47.9865 117.36V110.136C47.9865 110.027 47.9983 109.934 48.0217 109.855C48.0451 109.777 48.0958 109.719 48.1739 109.68C48.2519 109.633 48.3612 109.61 48.5017 109.61C48.6578 109.61 48.771 109.633 48.8412 109.68C48.9115 109.719 48.9583 109.781 48.9817 109.867C49.0051 109.945 49.0168 110.039 49.0168 110.148V114.293L50.9486 112.443C51.0345 112.357 51.1164 112.298 51.1945 112.267C51.2803 112.228 51.3623 112.22 51.4403 112.244C51.5262 112.267 51.612 112.33 51.6979 112.431C51.8384 112.587 51.9047 112.72 51.8969 112.829C51.8969 112.931 51.8267 113.048 51.6862 113.18L49.7895 114.972L52.3418 116.986Z" fill="black"/>
<path d="M56.0296 117.957C55.5613 117.957 55.1437 117.879 54.7769 117.723C54.41 117.567 54.0978 117.356 53.8402 117.091C53.5905 116.818 53.3992 116.505 53.2666 116.154C53.1339 115.803 53.0675 115.424 53.0675 115.019C53.0675 114.48 53.1924 114 53.4422 113.579C53.6919 113.157 54.0354 112.825 54.4725 112.583C54.9174 112.334 55.4247 112.209 55.9945 112.209C56.3847 112.209 56.7321 112.271 57.0365 112.396C57.3487 112.513 57.614 112.673 57.8326 112.876C58.0511 113.079 58.2189 113.305 58.336 113.555C58.4531 113.805 58.5116 114.055 58.5116 114.304C58.5116 114.702 58.418 114.983 58.2306 115.147C58.0433 115.303 57.8131 115.382 57.5399 115.382H54.1563C54.1485 115.725 54.2383 116.022 54.4256 116.271C54.6208 116.513 54.8627 116.701 55.1515 116.833C55.4481 116.966 55.7447 117.032 56.0413 117.032C56.2598 117.032 56.4472 117.021 56.6033 116.997C56.7594 116.974 56.896 116.943 57.013 116.904C57.1301 116.865 57.2316 116.825 57.3174 116.786C57.4033 116.747 57.4774 116.708 57.5399 116.669C57.6101 116.63 57.6765 116.603 57.7389 116.587C57.8092 116.572 57.8755 116.58 57.938 116.611C58.0082 116.634 58.0628 116.685 58.1019 116.763C58.1487 116.825 58.1799 116.884 58.1955 116.939C58.2111 116.993 58.2189 117.052 58.2189 117.114C58.2189 117.224 58.1253 117.345 57.938 117.477C57.7506 117.61 57.4892 117.723 57.1535 117.817C56.8257 117.91 56.4511 117.957 56.0296 117.957ZM54.1563 114.691H57.095C57.2433 114.691 57.3526 114.671 57.4228 114.632C57.5009 114.593 57.5399 114.488 57.5399 114.316C57.5399 114.098 57.4735 113.902 57.3409 113.731C57.2082 113.551 57.0247 113.407 56.7906 113.298C56.5642 113.188 56.3028 113.134 56.0062 113.134C55.6627 113.134 55.3466 113.204 55.0578 113.344C54.7769 113.477 54.5544 113.66 54.3905 113.895C54.2266 114.129 54.1485 114.394 54.1563 114.691Z" fill="black"/>
<path d="M62.2379 117.899C61.8711 117.899 61.5588 117.864 61.3013 117.793C61.0515 117.723 60.8447 117.614 60.6808 117.466C60.5169 117.317 60.3998 117.126 60.3295 116.892C60.2593 116.65 60.2242 116.353 60.2242 116.002V110.827C60.2242 110.718 60.2359 110.624 60.2593 110.546C60.2827 110.468 60.3295 110.41 60.3998 110.371C60.47 110.324 60.5793 110.3 60.7276 110.3C60.8759 110.3 60.9891 110.324 61.0671 110.371C61.1452 110.41 61.1959 110.468 61.2193 110.546C61.2427 110.616 61.2544 110.706 61.2544 110.816V116.002C61.2544 116.205 61.2701 116.369 61.3013 116.494C61.3403 116.611 61.3949 116.701 61.4652 116.763C61.5432 116.825 61.6447 116.865 61.7696 116.88C61.8945 116.896 62.0467 116.904 62.2262 116.904C62.3511 116.904 62.4525 116.915 62.5306 116.939C62.6086 116.962 62.6672 117.009 62.7062 117.079C62.7452 117.149 62.7647 117.255 62.7647 117.395C62.7647 117.544 62.7413 117.657 62.6945 117.735C62.6555 117.805 62.593 117.848 62.5072 117.864C62.4291 117.887 62.3394 117.899 62.2379 117.899ZM59.6154 112.361L60.7393 112.373L62.3667 112.349C62.476 112.349 62.5696 112.361 62.6477 112.384C62.7257 112.4 62.7843 112.447 62.8233 112.525C62.8701 112.595 62.8935 112.704 62.8935 112.853C62.8935 113.001 62.874 113.114 62.835 113.192C62.796 113.262 62.7374 113.309 62.6594 113.333C62.5813 113.356 62.4877 113.368 62.3784 113.368L60.7744 113.344L59.5919 113.356C59.428 113.356 59.3149 113.317 59.2524 113.239C59.1978 113.161 59.1705 113.032 59.1705 112.853C59.1705 112.681 59.2056 112.556 59.2758 112.478C59.3461 112.4 59.4593 112.361 59.6154 112.361Z" fill="black"/>
<path d="M69.3783 118.016C69.0817 118.016 68.8007 117.981 68.5353 117.91C68.2777 117.84 68.0397 117.747 67.8211 117.629C67.6104 117.505 67.4231 117.368 67.2591 117.22C67.0952 117.071 66.9665 116.923 66.8728 116.775C66.7869 116.65 66.7323 116.548 66.7089 116.47C66.6855 116.385 66.6894 116.303 66.7206 116.224C66.7596 116.146 66.8338 116.061 66.943 115.967C67.0679 115.873 67.1772 115.83 67.2709 115.838C67.3645 115.838 67.4504 115.873 67.5284 115.944C67.6143 116.014 67.7001 116.107 67.786 116.224C67.9811 116.49 68.2192 116.685 68.5002 116.81C68.7812 116.927 69.0582 116.986 69.3314 116.986C69.6827 116.986 69.9949 116.939 70.268 116.845C70.5412 116.751 70.7559 116.611 70.912 116.424C71.0759 116.228 71.1578 115.979 71.1578 115.674C71.1578 115.424 71.0954 115.214 70.9705 115.042C70.8456 114.87 70.6778 114.726 70.4671 114.609C70.2563 114.484 70.0222 114.379 69.7646 114.293C69.507 114.199 69.2456 114.109 68.9802 114.023C68.7694 113.953 68.5626 113.875 68.3597 113.789C68.1567 113.696 67.9655 113.594 67.786 113.485C67.6065 113.368 67.4465 113.231 67.306 113.075C67.1733 112.919 67.0679 112.736 66.9899 112.525C66.9196 112.314 66.8845 112.068 66.8845 111.787C66.8845 111.358 66.986 110.979 67.1889 110.652C67.3996 110.324 67.6923 110.07 68.067 109.891C68.4416 109.703 68.8748 109.61 69.3665 109.61C69.6553 109.61 69.9207 109.637 70.1627 109.692C70.4046 109.746 70.6193 109.82 70.8066 109.914C70.9939 110 71.1539 110.094 71.2866 110.195C71.4193 110.289 71.5208 110.378 71.591 110.464C71.7315 110.613 71.8096 110.737 71.8252 110.839C71.8408 110.94 71.7822 111.065 71.6496 111.214C71.5247 111.354 71.4037 111.428 71.2866 111.436C71.1695 111.444 71.0408 111.389 70.9003 111.272C70.752 111.1 70.5959 110.968 70.4319 110.874C70.2758 110.78 70.108 110.718 69.9285 110.687C69.7568 110.648 69.5656 110.628 69.3548 110.628C69.1519 110.628 68.9607 110.656 68.7812 110.71C68.6094 110.757 68.4572 110.831 68.3246 110.933C68.1997 111.034 68.1021 111.159 68.0319 111.307C67.9616 111.448 67.9265 111.612 67.9265 111.799C67.9265 112.01 67.9811 112.189 68.0904 112.338C68.2075 112.486 68.3597 112.615 68.547 112.724C68.7343 112.825 68.9451 112.919 69.1792 113.005C69.4134 113.083 69.6592 113.161 69.9168 113.239C70.1978 113.325 70.4749 113.43 70.7481 113.555C71.0212 113.672 71.2671 113.821 71.4856 114C71.7042 114.172 71.8798 114.39 72.0125 114.656C72.1452 114.921 72.2115 115.249 72.2115 115.639C72.2115 116.029 72.1335 116.373 71.9774 116.669C71.8291 116.966 71.6222 117.216 71.3569 117.419C71.0915 117.614 70.7871 117.762 70.4437 117.864C70.108 117.965 69.7529 118.016 69.3783 118.016Z" fill="black"/>
<path d="M75.6736 117.91C75.3302 117.91 75.0102 117.848 74.7136 117.723C74.4248 117.598 74.1711 117.423 73.9526 117.196C73.7341 116.97 73.5623 116.697 73.4375 116.377C73.3204 116.057 73.2618 115.694 73.2618 115.288V112.747C73.2618 112.638 73.2736 112.544 73.297 112.466C73.3204 112.388 73.3672 112.33 73.4375 112.291C73.5155 112.244 73.6287 112.22 73.777 112.22C73.9253 112.22 74.0346 112.244 74.1048 112.291C74.1828 112.338 74.2336 112.4 74.257 112.478C74.2804 112.556 74.2921 112.65 74.2921 112.759V115.3C74.2921 115.62 74.3468 115.904 74.456 116.154C74.5653 116.396 74.7292 116.584 74.9478 116.716C75.1741 116.849 75.4473 116.915 75.7673 116.915C76.0951 116.915 76.3761 116.849 76.6103 116.716C76.8522 116.584 77.0356 116.396 77.1605 116.154C77.2932 115.904 77.3596 115.62 77.3596 115.3V112.747C77.3596 112.638 77.3713 112.544 77.3947 112.466C77.4181 112.388 77.4649 112.33 77.5352 112.291C77.6132 112.244 77.7264 112.22 77.8747 112.22C78.023 112.22 78.1323 112.244 78.2025 112.291C78.2806 112.338 78.3274 112.4 78.343 112.478C78.3664 112.556 78.3781 112.65 78.3781 112.759V117.407C78.3781 117.501 78.3664 117.586 78.343 117.665C78.3274 117.735 78.2806 117.789 78.2025 117.828C78.1323 117.867 78.023 117.887 77.8747 117.887C77.7654 117.887 77.6757 117.875 77.6054 117.852C77.543 117.828 77.4961 117.797 77.4649 117.758C77.4337 117.719 77.4103 117.676 77.3947 117.629C77.3869 117.575 77.383 117.52 77.383 117.466L77.4298 116.962C77.3518 117.056 77.2581 117.157 77.1488 117.266C77.0395 117.376 76.9108 117.481 76.7625 117.583C76.622 117.676 76.462 117.754 76.2824 117.817C76.1029 117.879 75.9 117.91 75.6736 117.91Z" fill="black"/>
<path d="M82.6511 117.852C82.2686 117.852 81.9213 117.782 81.6091 117.641C81.2969 117.501 81.0315 117.306 80.813 117.056C80.5944 116.798 80.4227 116.498 80.2978 116.154C80.1808 115.811 80.1261 115.432 80.1339 115.019C80.1339 114.613 80.1925 114.238 80.3095 113.895C80.4266 113.551 80.5944 113.255 80.813 113.005C81.0393 112.747 81.3047 112.552 81.6091 112.419C81.9213 112.279 82.2686 112.209 82.6511 112.209C83.0101 112.209 83.3457 112.279 83.658 112.419C83.978 112.56 84.2551 112.759 84.4892 113.017C84.7312 113.266 84.9185 113.567 85.0512 113.918C85.1917 114.269 85.2619 114.648 85.2619 115.054C85.2619 115.46 85.1917 115.834 85.0512 116.178C84.9185 116.521 84.7312 116.818 84.4892 117.067C84.2551 117.317 83.978 117.512 83.658 117.653C83.3457 117.786 83.0101 117.852 82.6511 117.852ZM80.2159 120.205C80.0676 120.205 79.9544 120.182 79.8764 120.135C79.8061 120.096 79.7554 120.037 79.7242 119.959C79.7007 119.881 79.689 119.788 79.689 119.678V112.759C79.689 112.65 79.7007 112.556 79.7242 112.478C79.7476 112.4 79.7944 112.341 79.8646 112.302C79.9427 112.256 80.0559 112.232 80.2042 112.232C80.3759 112.232 80.5008 112.259 80.5788 112.314C80.6647 112.369 80.7154 112.466 80.731 112.607V119.667C80.7388 119.776 80.731 119.87 80.7076 119.948C80.6842 120.033 80.6335 120.096 80.5554 120.135C80.4852 120.182 80.372 120.205 80.2159 120.205ZM82.4989 116.892C82.8267 116.892 83.1233 116.814 83.3887 116.658C83.6541 116.494 83.8609 116.271 84.0092 115.99C84.1653 115.709 84.2433 115.389 84.2433 115.03C84.2433 114.663 84.1653 114.343 84.0092 114.07C83.8609 113.797 83.6541 113.586 83.3887 113.438C83.1311 113.282 82.8345 113.204 82.4989 113.204C82.1711 113.204 81.8745 113.282 81.6091 113.438C81.3515 113.594 81.1447 113.809 80.9886 114.082C80.8403 114.355 80.7661 114.671 80.7661 115.03C80.7661 115.389 80.8403 115.709 80.9886 115.99C81.1447 116.271 81.3515 116.494 81.6091 116.658C81.8745 116.814 82.1711 116.892 82.4989 116.892Z" fill="black"/>
<path d="M89.1749 117.957C88.7066 117.957 88.289 117.879 87.9221 117.723C87.5553 117.567 87.2431 117.356 86.9855 117.091C86.7357 116.818 86.5445 116.505 86.4118 116.154C86.2791 115.803 86.2128 115.424 86.2128 115.019C86.2128 114.48 86.3377 114 86.5874 113.579C86.8372 113.157 87.1806 112.825 87.6177 112.583C88.0626 112.334 88.57 112.209 89.1397 112.209C89.53 112.209 89.8773 112.271 90.1817 112.396C90.4939 112.513 90.7593 112.673 90.9779 112.876C91.1964 113.079 91.3642 113.305 91.4813 113.555C91.5984 113.805 91.6569 114.055 91.6569 114.304C91.6569 114.702 91.5632 114.983 91.3759 115.147C91.1886 115.303 90.9583 115.382 90.6852 115.382H87.3016C87.2938 115.725 87.3836 116.022 87.5709 116.271C87.766 116.513 88.008 116.701 88.2968 116.833C88.5934 116.966 88.89 117.032 89.1866 117.032C89.4051 117.032 89.5924 117.021 89.7485 116.997C89.9046 116.974 90.0412 116.943 90.1583 116.904C90.2754 116.865 90.3769 116.825 90.4627 116.786C90.5486 116.747 90.6227 116.708 90.6852 116.669C90.7554 116.63 90.8218 116.603 90.8842 116.587C90.9544 116.572 91.0208 116.58 91.0832 116.611C91.1535 116.634 91.2081 116.685 91.2471 116.763C91.294 116.825 91.3252 116.884 91.3408 116.939C91.3564 116.993 91.3642 117.052 91.3642 117.114C91.3642 117.224 91.2705 117.345 91.0832 117.477C90.8959 117.61 90.6344 117.723 90.2988 117.817C89.971 117.91 89.5963 117.957 89.1749 117.957ZM87.3016 114.691H90.2403C90.3886 114.691 90.4978 114.671 90.5681 114.632C90.6461 114.593 90.6852 114.488 90.6852 114.316C90.6852 114.098 90.6188 113.902 90.4861 113.731C90.3534 113.551 90.17 113.407 89.9359 113.298C89.7095 113.188 89.448 113.134 89.1514 113.134C88.808 113.134 88.4919 113.204 88.2031 113.344C87.9221 113.477 87.6997 113.66 87.5358 113.895C87.3719 114.129 87.2938 114.394 87.3016 114.691Z" fill="black"/>
<path d="M93.3433 117.899C93.195 117.899 93.0818 117.875 93.0038 117.828C92.9335 117.789 92.8867 117.731 92.8633 117.653C92.8477 117.567 92.8399 117.469 92.8399 117.36V112.747C92.8399 112.63 92.8516 112.533 92.875 112.455C92.8984 112.377 92.9452 112.322 93.0155 112.291C93.0857 112.252 93.1989 112.232 93.355 112.232C93.4955 112.232 93.6009 112.252 93.6711 112.291C93.7491 112.322 93.7999 112.373 93.8233 112.443C93.8545 112.505 93.8701 112.579 93.8701 112.665L93.8233 113.017C93.8779 112.915 93.9404 112.814 94.0106 112.712C94.0887 112.611 94.1823 112.521 94.2916 112.443C94.4087 112.357 94.5453 112.287 94.7014 112.232C94.8653 112.178 95.0643 112.15 95.2985 112.15C95.4156 112.15 95.5248 112.162 95.6263 112.185C95.7356 112.201 95.837 112.228 95.9307 112.267C96.0322 112.306 96.118 112.353 96.1883 112.408C96.2585 112.455 96.3131 112.509 96.3522 112.572C96.399 112.626 96.4224 112.693 96.4224 112.771C96.4224 112.942 96.3678 113.091 96.2585 113.216C96.1492 113.333 96.0361 113.391 95.919 113.391C95.8175 113.391 95.7434 113.38 95.6965 113.356C95.6497 113.325 95.6029 113.294 95.556 113.262C95.517 113.231 95.4585 113.204 95.3804 113.18C95.3024 113.149 95.1775 113.134 95.0058 113.134C94.8887 113.134 94.7638 113.157 94.6311 113.204C94.5062 113.251 94.3853 113.321 94.2682 113.415C94.1511 113.5 94.0536 113.614 93.9755 113.754C93.9053 113.895 93.8701 114.059 93.8701 114.246V117.384C93.8701 117.493 93.8584 117.586 93.835 117.665C93.8116 117.743 93.7609 117.801 93.6828 117.84C93.6126 117.879 93.4994 117.899 93.3433 117.899Z" fill="black"/>
<path d="M98.0878 117.899C97.9395 117.899 97.8303 117.875 97.76 117.828C97.6898 117.782 97.643 117.719 97.6195 117.641C97.5961 117.563 97.5844 117.469 97.5844 117.36V112.724C97.5844 112.615 97.5961 112.525 97.6195 112.455C97.643 112.384 97.6898 112.33 97.76 112.291C97.8381 112.252 97.9513 112.232 98.0996 112.232C98.2713 112.232 98.3923 112.267 98.4625 112.338C98.5405 112.4 98.5796 112.513 98.5796 112.677L98.5327 113.18C98.5874 113.063 98.6693 112.946 98.7786 112.829C98.8879 112.712 99.0167 112.607 99.165 112.513C99.3211 112.419 99.485 112.345 99.6567 112.291C99.8284 112.236 100.004 112.209 100.184 112.209C100.457 112.209 100.699 112.259 100.909 112.361C101.128 112.455 101.323 112.591 101.495 112.771C101.667 112.95 101.811 113.173 101.928 113.438C102.084 113.18 102.248 112.962 102.42 112.782C102.599 112.595 102.802 112.455 103.029 112.361C103.255 112.259 103.509 112.209 103.79 112.209C104.234 112.209 104.605 112.322 104.902 112.548C105.206 112.767 105.433 113.079 105.581 113.485C105.737 113.883 105.815 114.363 105.815 114.925V117.372C105.815 117.481 105.803 117.575 105.78 117.653C105.764 117.731 105.717 117.789 105.639 117.828C105.569 117.875 105.456 117.899 105.3 117.899C105.152 117.899 105.038 117.875 104.96 117.828C104.89 117.782 104.843 117.719 104.82 117.641C104.796 117.563 104.785 117.469 104.785 117.36V114.913C104.785 114.562 104.742 114.261 104.656 114.012C104.578 113.754 104.453 113.555 104.281 113.415C104.117 113.274 103.903 113.204 103.637 113.204C103.356 113.204 103.107 113.274 102.888 113.415C102.677 113.547 102.513 113.742 102.396 114C102.279 114.258 102.221 114.562 102.221 114.913V117.384C102.221 117.501 102.197 117.602 102.15 117.688C102.104 117.774 102.033 117.832 101.94 117.864C101.846 117.903 101.733 117.91 101.6 117.887C101.475 117.871 101.382 117.84 101.319 117.793C101.257 117.747 101.218 117.688 101.202 117.618C101.186 117.54 101.179 117.454 101.179 117.36V114.913C101.179 114.562 101.136 114.261 101.05 114.012C100.972 113.754 100.847 113.555 100.675 113.415C100.511 113.274 100.297 113.204 100.031 113.204C99.7504 113.204 99.5006 113.278 99.282 113.426C99.0713 113.567 98.9074 113.766 98.7903 114.023C98.6732 114.281 98.6147 114.578 98.6147 114.913V117.372C98.6147 117.481 98.603 117.575 98.5796 117.653C98.5562 117.731 98.5054 117.789 98.4274 117.828C98.3571 117.875 98.2439 117.899 98.0878 117.899Z" fill="black"/>
<path d="M112.081 117.887C111.909 117.887 111.784 117.852 111.706 117.782C111.636 117.711 111.593 117.602 111.577 117.454L111.624 116.868C111.546 116.993 111.425 117.138 111.261 117.302C111.097 117.458 110.883 117.598 110.617 117.723C110.352 117.84 110.028 117.899 109.645 117.899C109.271 117.899 108.92 117.825 108.592 117.676C108.272 117.528 107.987 117.321 107.737 117.056C107.495 116.79 107.304 116.486 107.163 116.143C107.031 115.799 106.964 115.432 106.964 115.042C106.964 114.66 107.031 114.301 107.163 113.965C107.304 113.621 107.499 113.321 107.749 113.063C107.999 112.806 108.283 112.603 108.603 112.455C108.931 112.306 109.279 112.232 109.645 112.232C109.989 112.232 110.282 112.279 110.523 112.373C110.765 112.459 110.972 112.576 111.144 112.724C111.324 112.864 111.48 113.024 111.612 113.204L111.589 112.712C111.581 112.54 111.616 112.419 111.694 112.349C111.78 112.271 111.913 112.232 112.092 112.232C112.241 112.232 112.346 112.256 112.408 112.302C112.479 112.349 112.526 112.416 112.549 112.501C112.572 112.587 112.584 112.693 112.584 112.818V117.337C112.584 117.446 112.572 117.544 112.549 117.629C112.526 117.715 112.479 117.778 112.408 117.817C112.338 117.864 112.229 117.887 112.081 117.887ZM109.821 116.915C110.133 116.915 110.418 116.833 110.676 116.669C110.941 116.505 111.148 116.287 111.296 116.014C111.452 115.733 111.53 115.413 111.53 115.054C111.53 114.687 111.448 114.367 111.284 114.094C111.128 113.813 110.918 113.594 110.652 113.438C110.395 113.274 110.11 113.192 109.798 113.192C109.431 113.192 109.111 113.278 108.838 113.45C108.572 113.614 108.361 113.836 108.205 114.117C108.049 114.398 107.971 114.718 107.971 115.077C107.971 115.428 108.049 115.744 108.205 116.025C108.361 116.299 108.576 116.517 108.849 116.681C109.13 116.837 109.454 116.915 109.821 116.915Z" fill="black"/>
<path d="M114.495 117.899C114.347 117.899 114.233 117.875 114.155 117.828C114.085 117.789 114.038 117.731 114.015 117.653C113.999 117.567 113.992 117.469 113.992 117.36V112.747C113.992 112.63 114.003 112.533 114.027 112.455C114.05 112.377 114.097 112.322 114.167 112.291C114.237 112.252 114.351 112.232 114.507 112.232C114.647 112.232 114.753 112.252 114.823 112.291C114.901 112.322 114.952 112.373 114.975 112.443C115.006 112.505 115.022 112.579 115.022 112.665L114.975 113.017C115.03 112.915 115.092 112.814 115.162 112.712C115.24 112.611 115.334 112.521 115.443 112.443C115.56 112.357 115.697 112.287 115.853 112.232C116.017 112.178 116.216 112.15 116.45 112.15C116.567 112.15 116.677 112.162 116.778 112.185C116.887 112.201 116.989 112.228 117.082 112.267C117.184 112.306 117.27 112.353 117.34 112.408C117.41 112.455 117.465 112.509 117.504 112.572C117.551 112.626 117.574 112.693 117.574 112.771C117.574 112.942 117.519 113.091 117.41 113.216C117.301 113.333 117.188 113.391 117.071 113.391C116.969 113.391 116.895 113.38 116.848 113.356C116.801 113.325 116.755 113.294 116.708 113.262C116.669 113.231 116.61 113.204 116.532 113.18C116.454 113.149 116.329 113.134 116.157 113.134C116.04 113.134 115.916 113.157 115.783 113.204C115.658 113.251 115.537 113.321 115.42 113.415C115.303 113.5 115.205 113.614 115.127 113.754C115.057 113.895 115.022 114.059 115.022 114.246V117.384C115.022 117.493 115.01 117.586 114.987 117.665C114.963 117.743 114.913 117.801 114.834 117.84C114.764 117.879 114.651 117.899 114.495 117.899Z" fill="black"/>
<path d="M123.091 116.986C123.24 117.103 123.318 117.216 123.326 117.325C123.341 117.434 123.287 117.563 123.162 117.711C123.068 117.821 122.982 117.891 122.904 117.922C122.834 117.961 122.76 117.965 122.682 117.934C122.604 117.91 122.514 117.856 122.412 117.77L119.766 115.616V117.372C119.766 117.481 119.751 117.575 119.72 117.653C119.696 117.731 119.649 117.789 119.579 117.828C119.509 117.875 119.396 117.899 119.24 117.899C119.099 117.899 118.99 117.875 118.912 117.828C118.834 117.789 118.783 117.731 118.76 117.653C118.744 117.567 118.736 117.469 118.736 117.36V110.136C118.736 110.027 118.748 109.934 118.771 109.855C118.795 109.777 118.845 109.719 118.923 109.68C119.001 109.633 119.111 109.61 119.251 109.61C119.407 109.61 119.521 109.633 119.591 109.68C119.661 109.719 119.708 109.781 119.731 109.867C119.755 109.945 119.766 110.039 119.766 110.148V114.293L121.698 112.443C121.784 112.357 121.866 112.298 121.944 112.267C122.03 112.228 122.112 112.22 122.19 112.244C122.276 112.267 122.362 112.33 122.447 112.431C122.588 112.587 122.654 112.72 122.646 112.829C122.646 112.931 122.576 113.048 122.436 113.18L120.539 114.972L123.091 116.986Z" fill="black"/>
<path d="M126.779 117.957C126.311 117.957 125.893 117.879 125.526 117.723C125.16 117.567 124.847 117.356 124.59 117.091C124.34 116.818 124.149 116.505 124.016 116.154C123.883 115.803 123.817 115.424 123.817 115.019C123.817 114.48 123.942 114 124.192 113.579C124.441 113.157 124.785 112.825 125.222 112.583C125.667 112.334 126.174 112.209 126.744 112.209C127.134 112.209 127.482 112.271 127.786 112.396C128.098 112.513 128.364 112.673 128.582 112.876C128.801 113.079 128.968 113.305 129.086 113.555C129.203 113.805 129.261 114.055 129.261 114.304C129.261 114.702 129.168 114.983 128.98 115.147C128.793 115.303 128.563 115.382 128.289 115.382H124.906C124.898 115.725 124.988 116.022 125.175 116.271C125.37 116.513 125.612 116.701 125.901 116.833C126.198 116.966 126.494 117.032 126.791 117.032C127.009 117.032 127.197 117.021 127.353 116.997C127.509 116.974 127.646 116.943 127.763 116.904C127.88 116.865 127.981 116.825 128.067 116.786C128.153 116.747 128.227 116.708 128.289 116.669C128.36 116.63 128.426 116.603 128.488 116.587C128.559 116.572 128.625 116.58 128.688 116.611C128.758 116.634 128.812 116.685 128.851 116.763C128.898 116.825 128.929 116.884 128.945 116.939C128.961 116.993 128.968 117.052 128.968 117.114C128.968 117.224 128.875 117.345 128.688 117.477C128.5 117.61 128.239 117.723 127.903 117.817C127.575 117.91 127.201 117.957 126.779 117.957ZM124.906 114.691H127.845C127.993 114.691 128.102 114.671 128.172 114.632C128.25 114.593 128.289 114.488 128.289 114.316C128.289 114.098 128.223 113.902 128.09 113.731C127.958 113.551 127.774 113.407 127.54 113.298C127.314 113.188 127.052 113.134 126.756 113.134C126.412 113.134 126.096 113.204 125.807 113.344C125.526 113.477 125.304 113.66 125.14 113.895C124.976 114.129 124.898 114.394 124.906 114.691Z" fill="black"/>
<path d="M132.987 117.899C132.621 117.899 132.308 117.864 132.051 117.793C131.801 117.723 131.594 117.614 131.43 117.466C131.266 117.317 131.149 117.126 131.079 116.892C131.009 116.65 130.974 116.353 130.974 116.002V110.827C130.974 110.718 130.985 110.624 131.009 110.546C131.032 110.468 131.079 110.41 131.149 110.371C131.22 110.324 131.329 110.3 131.477 110.3C131.625 110.3 131.739 110.324 131.817 110.371C131.895 110.41 131.945 110.468 131.969 110.546C131.992 110.616 132.004 110.706 132.004 110.816V116.002C132.004 116.205 132.02 116.369 132.051 116.494C132.09 116.611 132.144 116.701 132.215 116.763C132.293 116.825 132.394 116.865 132.519 116.88C132.644 116.896 132.796 116.904 132.976 116.904C133.101 116.904 133.202 116.915 133.28 116.939C133.358 116.962 133.417 117.009 133.456 117.079C133.495 117.149 133.514 117.255 133.514 117.395C133.514 117.544 133.491 117.657 133.444 117.735C133.405 117.805 133.343 117.848 133.257 117.864C133.179 117.887 133.089 117.899 132.987 117.899ZM130.365 112.361L131.489 112.373L133.116 112.349C133.225 112.349 133.319 112.361 133.397 112.384C133.475 112.4 133.534 112.447 133.573 112.525C133.62 112.595 133.643 112.704 133.643 112.853C133.643 113.001 133.624 113.114 133.585 113.192C133.546 113.262 133.487 113.309 133.409 113.333C133.331 113.356 133.237 113.368 133.128 113.368L131.524 113.344L130.341 113.356C130.178 113.356 130.064 113.317 130.002 113.239C129.947 113.161 129.92 113.032 129.92 112.853C129.92 112.681 129.955 112.556 130.025 112.478C130.096 112.4 130.209 112.361 130.365 112.361Z" fill="black"/>
</svg>
