<svg width="65" height="40" viewBox="0 0 65 40" fill="none" xmlns="http://www.w3.org/2000/svg">
<path d="M30.508 1.62717C32.0344 0.295158 33.6654 0.427201 35.4008 2.0233C35.5052 2.11906 35.6286 2.16695 35.7708 2.16695C44.7118 2.17275 53.6557 2.1742 62.6026 2.1713C64.8879 2.1713 65.4842 6.08463 62.2717 6.08898C53.4903 6.09189 44.7089 6.09189 35.9275 6.08898C35.7795 6.08898 35.6576 6.14412 35.5618 6.2544C32.1143 10.3419 26.7035 4.95286 30.508 1.62717Z" fill="#EEEEEE"/>
<path d="M0.568021 6.977C0.285076 5.18357 0.855327 3.81674 2.83594 3.81239C10.7497 3.79788 18.662 3.79642 26.5728 3.80803C26.7208 3.80803 26.7933 3.88348 26.7904 4.03439C26.7701 5.28805 27.1111 6.42998 27.8134 7.46019C27.9324 7.63431 27.8859 7.72137 27.6741 7.72137H5.13431C4.88474 7.72137 4.77882 7.84471 4.81654 8.09137C6.05859 16.3417 7.28904 24.6356 8.50788 32.973C8.77777 34.8361 10.2883 35.3541 12.073 35.3541C25.7588 35.3657 39.446 35.3672 53.1347 35.3585C54.828 35.3585 55.716 34.0961 55.9642 32.4507C57.1482 24.5805 58.3278 16.7117 59.5031 8.84444C59.5264 8.68773 59.6163 8.60793 59.773 8.60502L63.3729 8.56149C63.4745 8.55859 63.518 8.60647 63.5035 8.70514C62.3137 16.674 61.1268 24.6458 59.9428 32.6205C59.1984 37.6351 56.517 39.2762 51.6503 39.2762C39.0354 39.282 26.4219 39.2834 13.8098 39.2805C7.55893 39.2805 5.23878 37.9398 4.33771 31.8195C3.11597 23.5343 1.85941 15.2535 0.568021 6.977Z" fill="#EEEEEE"/>
<path d="M22.9511 17.9377H22.8118C21.7709 17.9377 20.927 18.7816 20.927 19.8226V28.5547C20.927 29.5957 21.7709 30.4395 22.8118 30.4395H22.9511C23.9921 30.4395 24.836 29.5957 24.836 28.5547V19.8226C24.836 18.7816 23.9921 17.9377 22.9511 17.9377Z" fill="#EEEEEE"/>
<path d="M32.632 17.9377H32.4927C31.4518 17.9377 30.6079 18.7816 30.6079 19.8226V28.5547C30.6079 29.5957 31.4518 30.4395 32.4927 30.4395H32.632C33.673 30.4395 34.5169 29.5957 34.5169 28.5547V19.8226C34.5169 18.7816 33.673 17.9377 32.632 17.9377Z" fill="#EEEEEE"/>
<path d="M42.3132 17.9292H42.1827C41.1393 17.9292 40.2935 18.775 40.2935 19.8184V28.5505C40.2935 29.5939 41.1393 30.4397 42.1827 30.4397H42.3132C43.3566 30.4397 44.2024 29.5939 44.2024 28.5505V19.8184C44.2024 18.775 43.3566 17.9292 42.3132 17.9292Z" fill="#EEEEEE"/>
</svg>
