<svg width="25" height="24" viewBox="0 0 25 24" fill="none" xmlns="http://www.w3.org/2000/svg">
<g clip-path="url(#clip0_740_733)">
<path d="M14.6251 7.00001C14.6251 7.39557 14.5078 7.78225 14.288 8.11115C14.0682 8.44004 13.7559 8.69639 13.3904 8.84776C13.025 8.99914 12.6228 9.03875 12.2349 8.96158C11.8469 8.88441 11.4906 8.69392 11.2108 8.41422C10.9311 8.13451 10.7407 7.77815 10.6635 7.39019C10.5863 7.00222 10.6259 6.60009 10.7773 6.23464C10.9287 5.86919 11.185 5.55683 11.5139 5.33707C11.8428 5.1173 12.2295 5.00001 12.6251 5.00001C13.1555 5.00001 13.6642 5.21072 14.0393 5.58579C14.4143 5.96086 14.6251 6.46957 14.6251 7.00001ZM17.5831 12.184L14.5251 15.215C14.2769 15.4652 13.9817 15.6637 13.6565 15.7992C13.3313 15.9347 12.9824 16.0045 12.6301 16.0045C12.2777 16.0045 11.9289 15.9347 11.6036 15.7992C11.2784 15.6637 10.9832 15.4652 10.7351 15.215L7.67906 12.2C6.36682 10.8472 5.63193 9.03715 5.62969 7.15243C5.62745 5.26772 6.35804 3.45596 7.66706 2.1C8.31043 1.43529 9.08088 0.906738 9.93262 0.545767C10.7844 0.184795 11.7 -0.0012207 12.6251 -0.0012207C13.5501 -0.0012207 14.4658 0.184795 15.3175 0.545767C16.1692 0.906738 16.9397 1.43529 17.5831 2.1C18.8901 3.45304 19.6206 5.26077 19.6206 7.14201C19.6206 9.02325 18.8901 10.831 17.5831 12.184ZM16.6251 7.00001C16.6251 6.20888 16.3905 5.43552 15.9509 4.77772C15.5114 4.11993 14.8867 3.60724 14.1558 3.30449C13.4249 3.00174 12.6206 2.92252 11.8447 3.07686C11.0688 3.2312 10.356 3.61217 9.79663 4.17158C9.23722 4.73099 8.85626 5.44372 8.70192 6.21964C8.54758 6.99557 8.62679 7.79984 8.92954 8.53074C9.23229 9.26164 9.74498 9.88636 10.4028 10.3259C11.0606 10.7654 11.8339 11 12.6251 11C13.6859 11 14.7033 10.5786 15.4535 9.82843C16.2036 9.07829 16.6251 8.06087 16.6251 7.00001ZM21.3781 9.20001C21.0131 10.8527 20.1944 12.371 19.0141 13.584L15.9361 16.637C15.503 17.0711 14.9887 17.4156 14.4225 17.6509C13.8562 17.8861 13.2492 18.0075 12.6361 18.008C12.0232 18.0082 11.4164 17.8877 10.8502 17.6533C10.2839 17.4189 9.76944 17.0753 9.33606 16.642L6.27306 13.619C5.1082 12.4232 4.29067 10.933 3.90806 9.30801C3.25855 9.54608 2.66468 9.91465 2.16306 10.391C1.67411 10.8559 1.28544 11.4158 1.02094 12.0365C0.756445 12.6572 0.621723 13.3254 0.625061 14V18.075C0.627162 19.1563 0.978853 20.208 1.62765 21.0731C2.27645 21.9381 3.18757 22.5702 4.22506 22.875L7.09506 23.775C7.57712 23.925 8.07919 24.0009 8.58406 24C9.04205 23.9994 9.49785 23.9369 9.93906 23.814L15.7191 22.104C16.2339 21.9629 16.7772 21.9629 17.2921 22.104L19.6791 22.904C20.2674 23.0472 20.8805 23.055 21.4722 22.9267C22.064 22.7985 22.6189 22.5376 23.0951 22.1637C23.5714 21.7898 23.9565 21.3127 24.2215 20.7683C24.4866 20.2239 24.6245 19.6265 24.6251 19.021V13.872C24.6216 12.8558 24.3092 11.8647 23.7293 11.0302C23.1493 10.1958 22.3293 9.55746 21.3781 9.20001Z" fill="#DF1C26"/>
</g>
<defs>
<clipPath id="clip0_740_733">
<rect width="24" height="24" fill="white" transform="translate(0.625)"/>
</clipPath>
</defs>
</svg>
