<svg width="20" height="21" viewBox="0 0 20 21" fill="none" xmlns="http://www.w3.org/2000/svg">
<g clip-path="url(#clip0_2_5979)">
<path d="M20 9.87248C19.8794 7.9225 19.1909 6.05041 18.0193 4.487C16.8477 2.9236 15.2441 1.73723 13.4064 1.07414C11.5687 0.411062 9.57705 0.300259 7.6771 0.755394C5.77715 1.21053 4.05192 2.21171 2.71409 3.6355C1.37626 5.05929 0.484331 6.84345 0.148249 8.76803C-0.187833 10.6926 0.0466277 12.6735 0.822728 14.4664C1.59883 16.2593 2.88264 17.786 4.51589 18.8581C6.14914 19.9302 8.06043 20.501 10.0141 20.5H15.8333C16.938 20.4989 17.9972 20.0595 18.7784 19.2784C19.5595 18.4972 19.9989 17.438 20 16.3333V9.87248ZM18.3333 16.3333C18.3333 16.9964 18.0699 17.6322 17.6011 18.1011C17.1322 18.5699 16.4963 18.8333 15.8333 18.8333H10.0141C8.83824 18.8328 7.67567 18.5844 6.60221 18.1044C5.52876 17.6244 4.56853 16.9235 3.78413 16.0475C2.99594 15.1719 2.40407 14.1379 2.04821 13.0148C1.69235 11.8917 1.58071 10.7056 1.7208 9.53582C1.94199 7.69077 2.77095 5.97181 4.077 4.64992C5.38304 3.32803 7.09188 2.47841 8.93413 2.23498C9.29349 2.18994 9.65529 2.16712 10.0175 2.16665C11.9595 2.16135 13.8415 2.8399 15.3333 4.08331C16.2046 4.80744 16.9197 5.70094 17.4354 6.70967C17.9511 7.7184 18.2566 8.82135 18.3333 9.95165V16.3333Z" fill="#DF1C26"/>
<path d="M6.66683 8.00004H10.0002C10.2212 8.00004 10.4331 7.91224 10.5894 7.75596C10.7457 7.59968 10.8335 7.38772 10.8335 7.16671C10.8335 6.94569 10.7457 6.73373 10.5894 6.57745C10.4331 6.42117 10.2212 6.33337 10.0002 6.33337H6.66683C6.44582 6.33337 6.23385 6.42117 6.07757 6.57745C5.92129 6.73373 5.8335 6.94569 5.8335 7.16671C5.8335 7.38772 5.92129 7.59968 6.07757 7.75596C6.23385 7.91224 6.44582 8.00004 6.66683 8.00004ZM13.3335 9.66671H6.66683C6.44582 9.66671 6.23385 9.75451 6.07757 9.91079C5.92129 10.0671 5.8335 10.279 5.8335 10.5C5.8335 10.7211 5.92129 10.933 6.07757 11.0893C6.23385 11.2456 6.44582 11.3334 6.66683 11.3334H13.3335C13.5545 11.3334 13.7665 11.2456 13.9228 11.0893C14.079 10.933 14.1668 10.7211 14.1668 10.5C14.1668 10.279 14.079 10.0671 13.9228 9.91079C13.7665 9.75451 13.5545 9.66671 13.3335 9.66671ZM13.3335 13H6.66683C6.44582 13 6.23385 13.0878 6.07757 13.2441C5.92129 13.4004 5.8335 13.6124 5.8335 13.8334C5.8335 14.0544 5.92129 14.2664 6.07757 14.4226C6.23385 14.5789 6.44582 14.6667 6.66683 14.6667H13.3335C13.5545 14.6667 13.7665 14.5789 13.9228 14.4226C14.079 14.2664 14.1668 14.0544 14.1668 13.8334C14.1668 13.6124 14.079 13.4004 13.9228 13.2441C13.7665 13.0878 13.5545 13 13.3335 13Z" fill="#DF1C26"/>
</g>
<defs>
<clipPath id="clip0_2_5979">
<rect width="20" height="20" fill="white" transform="translate(0 0.5)"/>
</clipPath>
</defs>
</svg>
