<svg width="8" height="16" viewBox="0 0 8 16" fill="none" xmlns="http://www.w3.org/2000/svg">
<path d="M8 4C8 1.794 6.206 0 4 0C1.794 0 0 1.794 0 4C0.00120806 4.94495 0.336415 5.85905 0.946381 6.58076C1.55635 7.30247 2.4018 7.78533 3.33333 7.944V15.3333C3.33333 15.5101 3.40357 15.6797 3.5286 15.8047C3.65362 15.9298 3.82319 16 4 16C4.17681 16 4.34638 15.9298 4.4714 15.8047C4.59643 15.6797 4.66667 15.5101 4.66667 15.3333V7.944C5.5982 7.78533 6.44365 7.30247 7.05362 6.58076C7.66359 5.85905 7.99879 4.94495 8 4ZM4 6.66667C2.52933 6.66667 1.33333 5.47067 1.33333 4C1.33333 2.52933 2.52933 1.33333 4 1.33333C5.47067 1.33333 6.66667 2.52933 6.66667 4C6.66667 5.47067 5.47067 6.66667 4 6.66667Z" fill="white"/>
</svg>
