<svg width="24" height="24" viewBox="0 0 24 24" fill="none" xmlns="http://www.w3.org/2000/svg">
<path d="M22.3293 13.3812C21.6297 13.3812 21.0113 13.832 20.7956 14.4976C19.6293 18.1004 16.2476 20.7144 12.2612 20.7144C7.3121 20.7144 3.28552 16.6874 3.28552 11.7379C3.28552 7.76784 5.87794 4.39698 9.45862 3.21746C10.15 2.98966 10.6184 2.34323 10.6184 1.61446C10.6184 1.09825 10.3714 0.612981 9.95431 0.309429C9.53719 0.0054121 8.99972 -0.0803827 8.50888 0.0776604C3.57831 1.66556 0 6.28692 0 11.7381C0 18.4994 5.50015 23.9999 12.2611 23.9999C17.6905 23.9999 22.2963 20.4497 23.9014 15.5505C24.0665 15.0467 23.9799 14.4944 23.6687 14.065C23.3583 13.6358 22.8602 13.3812 22.3293 13.3812Z" fill="#DF1C26"/>
<path d="M15.0191 3.20323C17.7446 4.08557 19.9014 6.23757 20.7902 8.96026C21.0115 9.63805 21.6428 10.0957 22.3559 10.0957H22.3898C22.9046 10.0957 23.3885 9.84952 23.6916 9.43359C23.9941 9.0177 24.0806 8.48145 23.9227 7.99141C22.7204 4.25277 19.7694 1.29574 16.0339 0.0846109C15.5389 -0.0757532 14.9959 0.0104214 14.5749 0.316379C14.1537 0.622759 13.9043 1.11212 13.9043 1.63297V1.66871C13.9041 2.36739 14.3548 2.98783 15.0191 3.20323Z" fill="#DF1C26"/>
</svg>
