<svg width="18" height="17" viewBox="0 0 18 17" fill="none" xmlns="http://www.w3.org/2000/svg">
<path d="M16.5653 1.8993C15.6344 0.889595 14.357 0.333496 12.9682 0.333496C11.9301 0.333496 10.9794 0.661695 10.1424 1.3089C9.72007 1.63559 9.3374 2.03527 9.00001 2.50178C8.66276 2.03541 8.27995 1.63559 7.85749 1.3089C7.02066 0.661694 6.06995 0.333496 5.03185 0.333496C3.64303 0.333496 2.3655 0.889595 1.43455 1.8993C0.514717 2.89721 0.00801086 4.2605 0.00801086 5.73822C0.00801086 7.25916 0.574812 8.6514 1.7917 10.1198C2.88031 11.4333 4.44488 12.7666 6.25669 14.3107C6.87536 14.8379 7.57662 15.4356 8.30478 16.0723C8.49714 16.2407 8.74398 16.3335 9.00001 16.3335C9.2559 16.3335 9.50287 16.2407 9.69496 16.0725C10.4231 15.4358 11.1248 14.8378 11.7437 14.3102C13.5553 12.7665 15.1199 11.4333 16.2084 10.1197C17.4253 8.6514 17.992 7.25916 17.992 5.73809C17.992 4.2605 17.4853 2.89721 16.5653 1.89931L16.5653 1.8993Z" fill="#FF0000"/>
</svg>
