<svg width="25" height="24" viewBox="0 0 25 24" fill="none" xmlns="http://www.w3.org/2000/svg">
<g clip-path="url(#clip0_654_81)">
<path d="M12.875 8C12.0839 8 11.3105 8.2346 10.6527 8.67412C9.99493 9.11365 9.48223 9.73836 9.17948 10.4693C8.87673 11.2002 8.79752 12.0044 8.95186 12.7804C9.1062 13.5563 9.48716 14.269 10.0466 14.8284C10.606 15.3878 11.3187 15.7688 12.0946 15.9231C12.8706 16.0775 13.6748 15.9983 14.4057 15.6955C15.1366 15.3928 15.7614 14.8801 16.2009 14.2223C16.6404 13.5645 16.875 12.7911 16.875 12C16.875 10.9391 16.4536 9.92172 15.7034 9.17157C14.9533 8.42143 13.9359 8 12.875 8ZM12.875 14C12.4794 14 12.0928 13.8827 11.7639 13.6629C11.435 13.4432 11.1786 13.1308 11.0272 12.7654C10.8759 12.3999 10.8363 11.9978 10.9134 11.6098C10.9906 11.2219 11.1811 10.8655 11.4608 10.5858C11.7405 10.3061 12.0969 10.1156 12.4848 10.0384C12.8728 9.96126 13.2749 10.0009 13.6404 10.1522C14.0058 10.3036 14.3182 10.56 14.5379 10.8889C14.7577 11.2178 14.875 11.6044 14.875 12C14.875 12.5304 14.6643 13.0391 14.2892 13.4142C13.9141 13.7893 13.4054 14 12.875 14Z" fill="#777777"/>
<path d="M22.169 13.9L21.725 13.644C21.9249 12.5564 21.9249 11.4416 21.725 10.354L22.169 10.098C22.5105 9.90102 22.8098 9.63871 23.0498 9.32606C23.2899 9.01341 23.466 8.65654 23.5682 8.27582C23.6703 7.8951 23.6965 7.49799 23.6452 7.10716C23.5938 6.71633 23.466 6.33944 23.269 5.998C23.0721 5.65656 22.8098 5.35727 22.4971 5.1172C22.1845 4.87714 21.8276 4.70101 21.4469 4.59886C21.0661 4.49672 20.669 4.47056 20.2782 4.52189C19.8874 4.57321 19.5105 4.70102 19.169 4.898L18.724 5.155C17.8836 4.43692 16.9177 3.88025 15.875 3.513V3C15.875 2.20435 15.559 1.44129 14.9964 0.87868C14.4338 0.31607 13.6707 0 12.875 0C12.0794 0 11.3163 0.31607 10.7537 0.87868C10.1911 1.44129 9.87504 2.20435 9.87504 3V3.513C8.83243 3.88157 7.86689 4.4396 7.02704 5.159L6.58004 4.9C5.89048 4.50218 5.07112 4.39457 4.30223 4.60086C3.53333 4.80715 2.87787 5.31044 2.48004 6C2.08222 6.68956 1.97462 7.50892 2.18091 8.27782C2.3872 9.04672 2.89048 9.70218 3.58004 10.1L4.02404 10.356C3.82415 11.4436 3.82415 12.5584 4.02404 13.646L3.58004 13.902C2.89048 14.2998 2.3872 14.9553 2.18091 15.7242C1.97462 16.4931 2.08222 17.3124 2.48004 18.002C2.87787 18.6916 3.53333 19.1948 4.30223 19.4011C5.07112 19.6074 5.89048 19.4998 6.58004 19.102L7.02504 18.845C7.86581 19.5632 8.83202 20.1199 9.87504 20.487V21C9.87504 21.7956 10.1911 22.5587 10.7537 23.1213C11.3163 23.6839 12.0794 24 12.875 24C13.6707 24 14.4338 23.6839 14.9964 23.1213C15.559 22.5587 15.875 21.7956 15.875 21V20.487C16.9177 20.1184 17.8832 19.5604 18.723 18.841L19.17 19.099C19.8596 19.4968 20.679 19.6044 21.4479 19.3981C22.2168 19.1918 22.8722 18.6886 23.27 17.999C23.6679 17.3094 23.7755 16.4901 23.5692 15.7212C23.3629 14.9523 22.8596 14.2968 22.17 13.899L22.169 13.9ZM19.621 10.124C19.9597 11.3511 19.9597 12.6469 19.621 13.874C19.5619 14.0876 19.5754 14.3147 19.6594 14.5198C19.7434 14.7249 19.8931 14.8963 20.085 15.007L21.169 15.633C21.3989 15.7656 21.5666 15.9841 21.6353 16.2403C21.704 16.4966 21.6682 16.7697 21.5355 16.9995C21.4029 17.2293 21.1845 17.397 20.9282 17.4658C20.6719 17.5345 20.3989 17.4986 20.169 17.366L19.083 16.738C18.8909 16.6267 18.6673 16.5826 18.4473 16.6124C18.2273 16.6423 18.0235 16.7445 17.868 16.903C16.978 17.8117 15.8566 18.46 14.625 18.778C14.4101 18.8333 14.2196 18.9585 14.0836 19.1339C13.9477 19.3094 13.8739 19.525 13.874 19.747V21C13.874 21.2652 13.7687 21.5196 13.5812 21.7071C13.3936 21.8946 13.1393 22 12.874 22C12.6088 22 12.3545 21.8946 12.1669 21.7071C11.9794 21.5196 11.874 21.2652 11.874 21V19.748C11.8742 19.526 11.8004 19.3104 11.6644 19.1349C11.5285 18.9595 11.338 18.8343 11.123 18.779C9.89139 18.4597 8.77037 17.81 7.88104 16.9C7.72557 16.7415 7.52178 16.6393 7.3018 16.6094C7.08182 16.5796 6.85815 16.6237 6.66604 16.735L5.58204 17.362C5.46827 17.4287 5.34243 17.4722 5.21177 17.4901C5.0811 17.508 4.9482 17.4998 4.8207 17.4661C4.6932 17.4324 4.57362 17.3738 4.46886 17.2937C4.3641 17.2136 4.27622 17.1135 4.21028 16.9993C4.14434 16.8851 4.10164 16.759 4.08464 16.6282C4.06764 16.4974 4.07668 16.3646 4.11123 16.2373C4.14579 16.11 4.20517 15.9909 4.28598 15.8866C4.36678 15.7824 4.4674 15.6952 4.58204 15.63L5.66604 15.004C5.85799 14.8933 6.00772 14.7219 6.0917 14.5168C6.17569 14.3117 6.18917 14.0846 6.13004 13.871C5.7914 12.6439 5.7914 11.3481 6.13004 10.121C6.18811 9.90788 6.17398 9.68153 6.08986 9.47729C6.00574 9.27305 5.85636 9.10241 5.66504 8.992L4.58104 8.366C4.35123 8.23339 4.18351 8.01492 4.11478 7.75865C4.04605 7.50239 4.08193 7.22931 4.21454 6.9995C4.34715 6.76969 4.56562 6.60197 4.82189 6.53324C5.07816 6.46451 5.35123 6.50039 5.58104 6.633L6.66704 7.261C6.85862 7.37251 7.08182 7.41721 7.30157 7.38807C7.52132 7.35893 7.72515 7.25759 7.88104 7.1C8.77113 6.19134 9.89247 5.54302 11.124 5.225C11.3397 5.16956 11.5306 5.04375 11.6667 4.8675C11.8027 4.69125 11.876 4.47464 11.875 4.252V3C11.875 2.73478 11.9804 2.48043 12.1679 2.29289C12.3555 2.10536 12.6098 2 12.875 2C13.1403 2 13.3946 2.10536 13.5821 2.29289C13.7697 2.48043 13.875 2.73478 13.875 3V4.252C13.8749 4.47396 13.9487 4.68964 14.0846 4.86508C14.2206 5.04052 14.4111 5.16573 14.626 5.221C15.8581 5.54015 16.9794 6.18988 17.869 7.1C18.0245 7.25847 18.2283 7.36069 18.4483 7.39057C18.6683 7.42044 18.8919 7.37626 19.084 7.265L20.168 6.638C20.2818 6.5713 20.4077 6.52777 20.5383 6.5099C20.669 6.49204 20.8019 6.50019 20.9294 6.5339C21.0569 6.56761 21.1765 6.6262 21.2812 6.70631C21.386 6.78642 21.4739 6.88646 21.5398 7.00067C21.6057 7.11488 21.6484 7.24101 21.6654 7.37179C21.6824 7.50257 21.6734 7.63542 21.6389 7.76269C21.6043 7.88997 21.5449 8.00915 21.4641 8.11337C21.3833 8.2176 21.2827 8.30482 21.168 8.37L20.084 8.996C19.8931 9.10671 19.7441 9.27748 19.6604 9.48169C19.5766 9.68591 19.5628 9.9121 19.621 10.125V10.124Z" fill="#777777"/>
</g>
<defs>
<clipPath id="clip0_654_81">
<rect width="24" height="24" fill="white" transform="translate(0.875)"/>
</clipPath>
</defs>
</svg>
